<svg width="210" height="83" viewBox="0 0 210 83" fill="none" xmlns="http://www.w3.org/2000/svg">
<mask id="mask0" mask-type="alpha" maskUnits="userSpaceOnUse" x="0" y="0" width="60" height="82">
<path d="M32.7708 15.9285V25.5743L43.6917 30.2576V30.8644H40.5123V43.4282L55.4566 49.8367V54.3273L29.8905 43.3639L4.3244 54.3273V49.8367L19.2684 43.4282V30.8644H16.0894V30.2576L29.8857 24.3412L29.8886 9.74824H35.2446V6.13753H29.8886V0L26.3786 1.51325V6.13753H21.0226V9.74824H26.3786V18.6845L0 30.057V81.1148H7.90819V55.5826L29.8905 46.156L51.8725 55.5826V81.1148H59.781V4.28377L32.7708 15.9285ZM32.1697 33.9317C32.1697 32.6363 31.1493 31.5865 29.8905 31.5865C28.6317 31.5865 27.611 32.6363 27.611 33.9317V38.802H32.1697V33.9317ZM46.0127 63.4002C46.0127 62.1051 44.9921 61.0554 43.7332 61.0554C42.4744 61.0554 41.4537 62.1051 41.4537 63.4002V72.4923H46.0127V63.4002ZM18.327 63.4002C18.327 62.1051 17.3063 61.0554 16.0475 61.0554C14.7886 61.0554 13.768 62.1051 13.768 63.4002V72.4923H18.327V63.4002ZM36.1644 81.1148H23.6163V66.4157C23.6163 62.8508 26.4253 59.9609 29.8905 59.9609C33.3554 59.9609 36.1644 62.8508 36.1644 66.4157V81.1148Z" fill="white"/>
</mask>
<g mask="url(#mask0)">
<path d="M32.7708 15.9285V25.5743L43.6917 30.2576V30.8644H40.5123V43.4282L55.4566 49.8367V54.3273L29.8905 43.3639L4.3244 54.3273V49.8367L19.2684 43.4282V30.8644H16.0894V30.2576L29.8857 24.3412L29.8886 9.74824H35.2446V6.13753H29.8886V0L26.3786 1.51325V6.13753H21.0226V9.74824H26.3786V18.6845L0 30.057V81.1148H7.90819V55.5826L29.8905 46.156L51.8725 55.5826V81.1148H59.781V4.28377L32.7708 15.9285ZM32.1697 33.9317C32.1697 32.6363 31.1493 31.5865 29.8905 31.5865C28.6317 31.5865 27.611 32.6363 27.611 33.9317V38.802H32.1697V33.9317ZM46.0127 63.4002C46.0127 62.1051 44.9921 61.0554 43.7332 61.0554C42.4744 61.0554 41.4537 62.1051 41.4537 63.4002V72.4923H46.0127V63.4002ZM18.327 63.4002C18.327 62.1051 17.3063 61.0554 16.0475 61.0554C14.7886 61.0554 13.768 62.1051 13.768 63.4002V72.4923H18.327V63.4002ZM36.1644 81.1148H23.6163V66.4157C23.6163 62.8508 26.4253 59.9609 29.8905 59.9609C33.3554 59.9609 36.1644 62.8508 36.1644 66.4157V81.1148Z" fill="url(#paint0_linear)"/>
</g>
<path d="M80.2781 50.2237C81.8017 50.2237 83.0142 49.8911 83.9155 49.2258C84.8169 48.5391 85.2675 47.5734 85.2675 46.3288C85.2675 45.8137 85.1817 45.3631 85.01 44.9768C84.8598 44.5905 84.6237 44.2472 84.3018 43.9467C83.9799 43.6248 83.5722 43.3351 83.0786 43.0776C82.585 42.7986 81.9949 42.5304 81.3082 42.2728L80.0528 41.7578C79.2158 41.4359 78.454 41.0711 77.7673 40.6634C77.102 40.2556 76.5226 39.7942 76.029 39.2792C75.5569 38.7427 75.1814 38.1526 74.9024 37.5088C74.6449 36.8435 74.5161 36.1031 74.5161 35.2877C74.5161 34.3649 74.6985 33.5387 75.0633 32.8091C75.4282 32.058 75.9325 31.4249 76.5763 30.9099C77.2415 30.3948 78.0141 30.0085 78.8939 29.751C79.7738 29.472 80.7288 29.3326 81.7588 29.3326C82.8533 29.3326 83.8297 29.4828 84.6881 29.7832C85.5679 30.0836 86.3512 30.4914 87.0379 31.0064L86.8448 35.2233H84.8812L84.2052 31.5858C83.4112 31.1566 82.5314 30.942 81.5657 30.942C80.3425 30.942 79.3124 31.2532 78.4755 31.8755C77.6385 32.4764 77.2201 33.3777 77.2201 34.5795C77.2201 35.5881 77.5312 36.4143 78.1536 37.0581C78.7974 37.6804 79.6987 38.2169 80.8575 38.6676L82.1451 39.1504C84.2482 39.9659 85.7504 40.8887 86.6517 41.9188C87.553 42.9274 88.0036 44.1935 88.0036 45.7172C88.0036 46.6614 87.8105 47.5198 87.4242 48.2923C87.0594 49.0434 86.5336 49.6872 85.8469 50.2237C85.1817 50.7388 84.3769 51.1358 83.4327 51.4147C82.5099 51.6937 81.4906 51.8332 80.3747 51.8332C79.1515 51.8332 77.9819 51.6723 76.866 51.3504C75.7715 51.0285 74.8488 50.6207 74.0977 50.1272L74.2908 45.6206H76.2866L76.9304 49.419C77.4239 49.698 77.9282 49.9018 78.4433 50.0306C78.9798 50.1593 79.5914 50.2237 80.2781 50.2237Z" fill="#293F65"/>
<path d="M94.6654 47.7451C94.6654 48.5606 94.8156 49.1615 95.1161 49.5477C95.438 49.9126 95.8779 50.095 96.4359 50.095C96.8007 50.095 97.144 50.0306 97.4659 49.9018C97.8093 49.7516 98.1848 49.5263 98.5926 49.2258L99.3651 50.0628C98.9359 50.6207 98.3994 51.0499 97.7556 51.3504C97.1118 51.6293 96.3822 51.7688 95.5667 51.7688C94.4294 51.7688 93.528 51.4791 92.8628 50.8997C92.219 50.2988 91.8971 49.3653 91.8971 48.0992C91.8971 47.6915 91.8971 47.2945 91.8971 46.9082C91.9186 46.5004 91.9293 45.9854 91.9293 45.3631V37.7663H89.2575V36.3499L92.1224 35.9958L92.9594 31.6824H94.8907L94.7298 36.0602H99.0432V37.7663H94.6654V47.7451Z" fill="#293F65"/>
<path d="M104.264 51.7688C103.62 51.7688 103.073 51.5435 102.623 51.0928C102.193 50.6422 101.979 50.1057 101.979 49.4834C101.979 48.8396 102.193 48.2923 102.623 47.8417C103.073 47.391 103.62 47.1657 104.264 47.1657C104.908 47.1657 105.445 47.391 105.874 47.8417C106.324 48.2923 106.55 48.8396 106.55 49.4834C106.55 50.1057 106.324 50.6422 105.874 51.0928C105.445 51.5435 104.908 51.7688 104.264 51.7688Z" fill="#293F65"/>
<path d="M121.042 41.3715V39.7942C121.042 38.3993 121.042 37.0152 121.042 35.6418C121.042 34.2683 121.02 32.8842 120.977 31.4893L118.016 31.1352V29.8154H126.675C128.027 29.8154 129.218 29.9764 130.248 30.2982C131.278 30.5987 132.126 31.0386 132.791 31.618C133.478 32.176 133.993 32.852 134.336 33.646C134.679 34.4185 134.851 35.2769 134.851 36.2212C134.851 37.1225 134.69 37.9809 134.368 38.7964C134.046 39.5904 133.521 40.2878 132.791 40.8887C132.061 41.4896 131.117 41.9724 129.958 42.3372C128.821 42.6806 127.426 42.8523 125.774 42.8523H124.1C124.1 44.0111 124.1 45.1485 124.1 46.2644C124.1 47.3803 124.121 48.5177 124.164 49.6765L127.158 50.0306V51.3504H118.016V50.0306L120.977 49.6765C121.02 48.3245 121.042 46.9618 121.042 45.5884C121.042 44.1935 121.042 42.7879 121.042 41.3715ZM124.1 39.7942V41.3393H126.224C127.19 41.3393 128.016 41.2213 128.703 40.9853C129.411 40.7277 129.98 40.3737 130.409 39.923C130.838 39.4723 131.149 38.9358 131.342 38.3135C131.557 37.6697 131.664 36.9723 131.664 36.2212C131.664 34.6546 131.224 33.4421 130.345 32.5837C129.465 31.7253 128.048 31.2961 126.095 31.2961H124.164C124.121 32.691 124.1 34.0966 124.1 35.513C124.1 36.9293 124.1 38.3564 124.1 39.7942Z" fill="#293F65"/>
<path d="M143.778 35.6418C144.615 35.6418 145.399 35.7812 146.128 36.0602C146.858 36.3392 147.491 36.7469 148.028 37.2834C148.564 37.7985 148.982 38.4423 149.283 39.2148C149.605 39.9874 149.766 40.8565 149.766 41.8222C149.766 42.187 149.744 42.5304 149.701 42.8523C149.658 43.1527 149.605 43.4102 149.54 43.6248H139.272C139.315 45.6206 139.808 47.1335 140.753 48.1636C141.697 49.1722 142.942 49.6765 144.487 49.6765C145.517 49.6765 146.375 49.4726 147.062 49.0649C147.749 48.6572 148.382 48.1099 148.961 47.4232L149.734 48.0348C149.133 49.1937 148.317 50.1057 147.287 50.771C146.279 51.4362 145.034 51.7688 143.553 51.7688C142.459 51.7688 141.472 51.5864 140.592 51.2216C139.712 50.8568 138.961 50.3418 138.338 49.6765C137.716 48.9898 137.233 48.1528 136.89 47.1657C136.547 46.1785 136.375 45.0734 136.375 43.8501C136.375 42.6269 136.568 41.511 136.954 40.5024C137.362 39.4938 137.898 38.6354 138.564 37.9272C139.25 37.1976 140.034 36.6396 140.914 36.2534C141.815 35.8456 142.77 35.6418 143.778 35.6418ZM143.585 37.1225C143.135 37.1225 142.673 37.2191 142.201 37.4122C141.751 37.5839 141.321 37.8843 140.914 38.3135C140.527 38.7212 140.184 39.2577 139.884 39.923C139.605 40.5668 139.422 41.3501 139.336 42.2728H145.195C145.967 42.2728 146.472 42.1119 146.708 41.79C146.965 41.4681 147.094 41.0711 147.094 40.599C147.094 40.1483 146.997 39.7191 146.804 39.3114C146.633 38.8822 146.386 38.5066 146.064 38.1847C145.764 37.8628 145.399 37.6053 144.97 37.4122C144.54 37.2191 144.079 37.1225 143.585 37.1225Z" fill="#293F65"/>
<path d="M157.033 47.7451C157.033 48.5606 157.183 49.1615 157.484 49.5477C157.806 49.9126 158.246 50.095 158.804 50.095C159.168 50.095 159.512 50.0306 159.834 49.9018C160.177 49.7516 160.553 49.5263 160.96 49.2258L161.733 50.0628C161.304 50.6207 160.767 51.0499 160.123 51.3504C159.48 51.6293 158.75 51.7688 157.934 51.7688C156.797 51.7688 155.896 51.4791 155.23 50.8997C154.587 50.2988 154.265 49.3653 154.265 48.0992C154.265 47.6915 154.265 47.2945 154.265 46.9082C154.286 46.5004 154.297 45.9854 154.297 45.3631V37.7663H151.625V36.3499L154.49 35.9958L155.327 31.6824H157.258L157.098 36.0602H161.411V37.7663H157.033V47.7451Z" fill="#293F65"/>
<path d="M170.656 35.6418C171.493 35.6418 172.276 35.7812 173.006 36.0602C173.735 36.3392 174.368 36.7469 174.905 37.2834C175.441 37.7985 175.86 38.4423 176.16 39.2148C176.482 39.9874 176.643 40.8565 176.643 41.8222C176.643 42.187 176.622 42.5304 176.579 42.8523C176.536 43.1527 176.482 43.4102 176.418 43.6248H166.149C166.192 45.6206 166.686 47.1335 167.63 48.1636C168.574 49.1722 169.819 49.6765 171.364 49.6765C172.394 49.6765 173.252 49.4726 173.939 49.0649C174.626 48.6572 175.259 48.1099 175.838 47.4232L176.611 48.0348C176.01 49.1937 175.194 50.1057 174.164 50.771C173.156 51.4362 171.911 51.7688 170.43 51.7688C169.336 51.7688 168.349 51.5864 167.469 51.2216C166.589 50.8568 165.838 50.3418 165.216 49.6765C164.593 48.9898 164.11 48.1528 163.767 47.1657C163.424 46.1785 163.252 45.0734 163.252 43.8501C163.252 42.6269 163.445 41.511 163.831 40.5024C164.239 39.4938 164.776 38.6354 165.441 37.9272C166.128 37.1976 166.911 36.6396 167.791 36.2534C168.692 35.8456 169.647 35.6418 170.656 35.6418ZM170.463 37.1225C170.012 37.1225 169.551 37.2191 169.078 37.4122C168.628 37.5839 168.199 37.8843 167.791 38.3135C167.405 38.7212 167.061 39.2577 166.761 39.923C166.482 40.5668 166.299 41.3501 166.213 42.2728H172.072C172.845 42.2728 173.349 42.1119 173.585 41.79C173.842 41.4681 173.971 41.0711 173.971 40.599C173.971 40.1483 173.875 39.7191 173.682 39.3114C173.51 38.8822 173.263 38.5066 172.941 38.1847C172.641 37.8628 172.276 37.6053 171.847 37.4122C171.418 37.2191 170.956 37.1225 170.463 37.1225Z" fill="#293F65"/>
<path d="M179.565 51.3504V50.1915L181.882 49.7731C181.904 48.9576 181.915 48.0777 181.915 47.1335C181.936 46.1678 181.947 45.3201 181.947 44.5905V43.0454C181.947 42.1655 181.936 41.4359 181.915 40.8565C181.893 40.2771 181.872 39.6655 181.85 39.0217L179.307 38.732V37.6053L183.814 35.6418L184.297 35.9637L184.651 39.762C185.187 38.4745 185.874 37.4658 186.711 36.7362C187.548 36.0066 188.406 35.6418 189.286 35.6418C189.78 35.6418 190.241 35.7491 190.67 35.9637C191.099 36.1782 191.411 36.468 191.604 36.8328C191.604 38.3993 190.971 39.1826 189.705 39.1826C189.34 39.1826 188.996 39.1182 188.674 38.9895C188.353 38.8393 188.041 38.6354 187.741 38.3779L187.355 38.0238C186.711 38.5174 186.174 39.1075 185.745 39.7942C185.316 40.4595 184.962 41.2535 184.683 42.1763V44.5905C184.683 45.2987 184.683 46.1249 184.683 47.0691C184.704 48.0134 184.726 48.8932 184.747 49.7087L187.387 50.1915V51.3504H179.565Z" fill="#293F65"/>
<path d="M198.086 30.1695C198.086 30.8777 197.968 31.5644 197.732 32.2296C197.496 32.8734 197.174 33.4958 196.766 34.0966C196.359 34.6975 195.887 35.2555 195.35 35.7705C194.814 36.2641 194.245 36.704 193.644 37.0903L193.032 36.2212C193.419 35.8993 193.762 35.5988 194.062 35.3199C194.384 35.0409 194.674 34.7512 194.932 34.4507C195.189 34.1503 195.414 33.8391 195.608 33.5172C195.822 33.1739 196.015 32.7876 196.187 32.3584L195.253 31.5215C194.76 31.0923 194.427 30.6953 194.256 30.3304C194.084 29.9442 193.998 29.5472 193.998 29.1394C193.998 28.4956 194.17 28.0235 194.513 27.7231C194.856 27.4012 195.318 27.2402 195.897 27.2402C196.219 27.2402 196.52 27.2939 196.799 27.4012C197.099 27.487 197.378 27.648 197.636 27.884C197.936 28.6136 198.086 29.3755 198.086 30.1695Z" fill="#293F65"/>
<path d="M203.135 51.7688C202.233 51.7688 201.407 51.6615 200.656 51.4469C199.905 51.2538 199.132 50.9534 198.338 50.5456L198.21 47.0047H199.98L200.592 49.8053C201.343 50.1486 202.212 50.3203 203.199 50.3203C204.422 50.3203 205.324 50.095 205.903 49.6443C206.504 49.1937 206.804 48.6035 206.804 47.8739C206.804 47.1872 206.558 46.6399 206.064 46.2322C205.592 45.8245 204.841 45.4382 203.811 45.0734L202.33 44.5261C201.15 44.0969 200.205 43.539 199.497 42.8523C198.789 42.1655 198.435 41.275 198.435 40.1805C198.435 39.6011 198.553 39.0431 198.789 38.5066C199.047 37.9487 199.411 37.4658 199.884 37.0581C200.356 36.6289 200.935 36.2855 201.622 36.028C202.33 35.7705 203.135 35.6418 204.036 35.6418C204.916 35.6418 205.71 35.7598 206.418 35.9958C207.148 36.2104 207.856 36.5323 208.543 36.9615L208.414 40.2449H206.74L206.225 37.6697C205.495 37.3049 204.755 37.1225 204.004 37.1225C203.017 37.1225 202.266 37.3264 201.751 37.7341C201.257 38.1204 201.01 38.6461 201.01 39.3114C201.01 39.6762 201.064 39.9874 201.171 40.2449C201.278 40.4809 201.439 40.7063 201.654 40.9209C201.89 41.1355 202.19 41.3393 202.555 41.5325C202.942 41.7042 203.414 41.8866 203.972 42.0797L204.969 42.4338C206.579 43.0347 207.716 43.7214 208.382 44.4939C209.068 45.245 209.412 46.1356 209.412 47.1657C209.412 47.788 209.272 48.3782 208.993 48.9361C208.736 49.4726 208.339 49.9555 207.802 50.3847C207.287 50.8139 206.633 51.1465 205.839 51.3826C205.066 51.6401 204.165 51.7688 203.135 51.7688Z" fill="#293F65"/>
<path d="M85.3963 80.1142C86.0186 80.1142 86.6517 80.0499 87.2955 79.9211C87.9607 79.7709 88.6045 79.5455 89.2269 79.2451L89.8707 75.5111H91.8664L91.7377 80.1786C90.729 80.7366 89.6775 81.1336 88.5831 81.3696C87.5101 81.6057 86.3942 81.7237 85.2353 81.7237C83.6044 81.7237 82.1129 81.4555 80.7609 80.919C79.4304 80.361 78.2823 79.5885 77.3166 78.6013C76.3724 77.5927 75.632 76.4017 75.0955 75.0282C74.5805 73.6334 74.323 72.1097 74.323 70.4573C74.323 68.8264 74.5912 67.3242 75.1277 65.9507C75.6857 64.5773 76.4475 63.397 77.4132 62.4099C78.3789 61.4012 79.527 60.618 80.8575 60.06C82.188 59.502 83.6366 59.2231 85.2031 59.2231C86.1044 59.2231 87.0916 59.3304 88.1646 59.545C89.2376 59.7381 90.3213 60.1458 91.4158 60.7682L91.5445 65.4357H89.5488L88.905 61.7017C88.3255 61.3798 87.7569 61.1545 87.1989 61.0257C86.6624 60.8969 86.1366 60.8326 85.6216 60.8326C84.5486 60.8326 83.54 61.0472 82.5958 61.4764C81.6515 61.8841 80.8253 62.4957 80.1171 63.3112C79.409 64.1052 78.851 65.1031 78.4433 66.3048C78.0355 67.5066 77.8317 68.8907 77.8317 70.4573C77.8317 72.0453 78.0141 73.4402 78.3789 74.642C78.7652 75.8437 79.2909 76.8523 79.9562 77.6678C80.6215 78.4618 81.4155 79.0734 82.3382 79.5026C83.2825 79.9104 84.3018 80.1142 85.3963 80.1142Z" fill="#293F65"/>
<path d="M105.06 65.5323C106.455 65.5323 107.485 65.9936 108.15 66.9164C108.837 67.8392 109.18 69.3628 109.18 71.4874V74.481C109.18 75.2321 109.18 76.0798 109.18 77.024C109.201 77.9468 109.223 78.8159 109.244 79.6314L111.498 80.082V81.2409H104.03V80.082L106.379 79.6636C106.401 78.8481 106.412 77.9683 106.412 77.024C106.433 76.0798 106.444 75.2321 106.444 74.481V71.7449C106.444 70.2642 106.24 69.2448 105.832 68.6869C105.425 68.1289 104.749 67.8499 103.804 67.8499C103.01 67.8499 102.259 68.0109 101.551 68.3328C100.843 68.6547 100.081 69.1912 99.2655 69.9423V74.481C99.2655 75.1892 99.2655 76.0261 99.2655 76.9918C99.287 77.9361 99.3085 78.8159 99.3299 79.6314L101.551 80.082V81.2409H94.083V80.082L96.4972 79.6314C96.5187 78.8159 96.5294 77.9361 96.5294 76.9918C96.5509 76.0261 96.5616 75.1892 96.5616 74.481V60.3497L93.922 60.0278V58.9012L98.8471 57.4526L99.2977 57.7101L99.169 62.2811V68.5259C99.963 67.6246 100.886 66.9057 101.937 66.3692C102.989 65.8112 104.03 65.5323 105.06 65.5323Z" fill="#293F65"/>
<path d="M129.965 81.2409L125.491 81.4984L125.169 78.6335C124.289 79.7065 123.355 80.4791 122.368 80.9512C121.403 81.4233 120.437 81.6593 119.471 81.6593C118.827 81.6593 118.237 81.552 117.701 81.3374C117.186 81.1443 116.746 80.8224 116.381 80.3718C116.016 79.8996 115.737 79.2988 115.544 78.5691C115.372 77.8395 115.286 76.9382 115.286 75.8652L115.383 67.8499L113.098 67.3671V66.2083L117.829 65.7576L118.151 66.0795L117.99 70.5861V75.5755C117.99 76.9918 118.194 77.979 118.602 78.5369C119.031 79.0949 119.686 79.3739 120.566 79.3739C122.068 79.3739 123.57 78.6764 125.072 77.2815L125.169 67.8499L122.883 67.3671V66.2083L127.551 65.7576L127.873 66.0795L127.776 70.5861V79.6314L129.965 80.082V81.2409Z" fill="#293F65"/>
<path d="M132.412 81.2409V80.082L134.729 79.6636C134.751 78.8481 134.762 77.9683 134.762 77.024C134.783 76.0583 134.794 75.2107 134.794 74.481V72.9359C134.794 72.0561 134.783 71.3264 134.762 70.747C134.74 70.1676 134.719 69.556 134.697 68.9122L132.154 68.6225V67.4958L136.661 65.5323L137.144 65.8542L137.498 69.6526C138.034 68.365 138.721 67.3564 139.558 66.6267C140.395 65.8971 141.253 65.5323 142.133 65.5323C142.627 65.5323 143.088 65.6396 143.517 65.8542C143.946 66.0688 144.258 66.3585 144.451 66.7233C144.451 68.2899 143.818 69.0731 142.551 69.0731C142.187 69.0731 141.843 69.0088 141.521 68.88C141.2 68.7298 140.888 68.5259 140.588 68.2684L140.202 67.9143C139.558 68.4079 139.021 68.998 138.592 69.6847C138.163 70.35 137.809 71.144 137.53 72.0668V74.481C137.53 75.1892 137.53 76.0154 137.53 76.9596C137.551 77.9039 137.573 78.7837 137.594 79.5992L140.234 80.082V81.2409H132.412Z" fill="#293F65"/>
<path d="M153.273 67.013C151.9 67.013 150.763 67.5495 149.861 68.6225C148.981 69.674 148.542 71.2406 148.542 73.3222C148.542 75.3609 149.014 76.9167 149.958 77.9897C150.924 79.0412 152.168 79.567 153.692 79.567C154.615 79.567 155.462 79.3631 156.235 78.9554C157.007 78.5262 157.641 77.9146 158.134 77.1206L158.939 77.5391C158.488 78.891 157.759 79.9211 156.75 80.6293C155.741 81.316 154.475 81.6593 152.952 81.6593C151.857 81.6593 150.859 81.4769 149.958 81.1121C149.057 80.7473 148.295 80.2215 147.672 79.5348C147.05 78.8266 146.567 77.979 146.224 76.9918C145.881 76.0047 145.709 74.8888 145.709 73.6441C145.709 72.378 145.913 71.2406 146.32 70.232C146.728 69.2234 147.275 68.3757 147.962 67.689C148.67 66.9808 149.464 66.4443 150.344 66.0795C151.245 65.7147 152.179 65.5323 153.145 65.5323C153.874 65.5323 154.561 65.6396 155.205 65.8542C155.849 66.0688 156.417 66.3692 156.911 66.7555C157.426 67.1203 157.844 67.5602 158.166 68.0753C158.51 68.5688 158.735 69.1161 158.842 69.7169C158.692 70.5324 158.198 70.9401 157.362 70.9401C156.804 70.9401 156.396 70.8007 156.138 70.5217C155.881 70.2212 155.698 69.8457 155.591 69.395L155.012 67.2705C154.711 67.1632 154.411 67.0988 154.11 67.0774C153.831 67.0345 153.552 67.013 153.273 67.013Z" fill="#293F65"/>
<path d="M171.671 65.5323C173.066 65.5323 174.096 65.9936 174.761 66.9164C175.448 67.8392 175.791 69.3628 175.791 71.4874V74.481C175.791 75.2321 175.791 76.0798 175.791 77.024C175.813 77.9468 175.834 78.8159 175.856 79.6314L178.109 80.082V81.2409H170.641V80.082L172.991 79.6636C173.012 78.8481 173.023 77.9683 173.023 77.024C173.045 76.0798 173.055 75.2321 173.055 74.481V71.7449C173.055 70.2642 172.851 69.2448 172.444 68.6869C172.036 68.1289 171.36 67.8499 170.416 67.8499C169.622 67.8499 168.871 68.0109 168.162 68.3328C167.454 68.6547 166.692 69.1912 165.877 69.9423V74.481C165.877 75.1892 165.877 76.0261 165.877 76.9918C165.898 77.9361 165.92 78.8159 165.941 79.6314L168.162 80.082V81.2409H160.694V80.082L163.109 79.6314C163.13 78.8159 163.141 77.9361 163.141 76.9918C163.162 76.0261 163.173 75.1892 163.173 74.481V60.3497L160.534 60.0278V58.9012L165.459 57.4526L165.909 57.7101L165.78 62.2811V68.5259C166.574 67.6246 167.497 66.9057 168.549 66.3692C169.6 65.8112 170.641 65.5323 171.671 65.5323Z" fill="#293F65"/>
<defs>
<linearGradient id="paint0_linear" x1="47.074" y1="-1.64056e-07" x2="-5.26395" y2="67.0968" gradientUnits="userSpaceOnUse">
<stop stop-color="#9D243A"/>
<stop offset="1" stop-color="#D2304A"/>
</linearGradient>
</defs>
</svg>
