<svg width="76" height="121" viewBox="0 0 76 121" fill="none" xmlns="http://www.w3.org/2000/svg">
<path fill-rule="evenodd" clip-rule="evenodd" d="M74.7449 85.2242L75.4787 80.7269L63.6712 76.1101C63.919 76.8891 64.0556 77.6887 64.0556 78.5059C64.0556 86.2099 52.5807 92.455 38.4257 92.455C24.2708 92.455 12.7959 86.2099 12.7959 78.5059C12.7959 77.6887 12.9325 76.8893 13.1802 76.1101L1.37305 80.7269L2.1066 85.2242L3.81274 86.22L4.65023 98.3924L3.02376 98.8296V102.224L38.4257 120.723L73.8277 102.224V98.8296L72.2015 98.3924L73.0387 86.22L74.7449 85.2242Z" fill="#243032"/>
<path fill-rule="evenodd" clip-rule="evenodd" d="M44.5894 58.0088C54.7356 62.3428 62.4655 68.7134 63.4615 69.5534L63.4577 69.5579C65.4215 71.4697 66.336 73.391 66.253 75.4314C66.2312 75.9661 66.1328 76.4962 65.9884 77.0163L70.9297 78.9484C71.2444 77.927 71.4553 76.8427 71.505 75.7055C71.6499 72.3914 70.4754 69.3065 68.0117 66.518C66.8003 65.1467 65.6014 63.7657 64.4995 62.2949C61.9536 58.8969 58.0771 53.198 54.9735 46.3607C54.0713 48.803 52.6576 51.1474 50.8152 53.2139C48.9738 55.2783 46.8434 56.9093 44.5894 58.0088Z" fill="#D74447"/>
<path fill-rule="evenodd" clip-rule="evenodd" d="M10.2178 54.0253C10.3623 53.964 10.4938 53.8899 10.644 53.8356C12.2529 53.2968 14.1647 53.0973 16.1702 53.1325C19.3154 53.1665 22.6749 53.585 26.099 54.2304C19.4442 57.3387 13.4912 57.5725 10.3634 54.1994C10.3118 54.1438 10.2675 54.0825 10.2178 54.0253ZM37.1076 45.2149C37.4243 45.471 37.7363 45.7324 38.0519 45.9899C37.5153 46.4842 36.9743 46.958 36.4319 47.4209C35.3899 46.6424 34.3521 45.8463 33.2952 45.092C28.4919 41.5757 23.6025 38.1186 18.4806 34.8323L14.5782 32.3671C14.3861 32.2528 14.1892 32.1171 13.9967 32C14.6107 31.0607 15.2726 30.1215 15.9754 29.1855C19.0214 30.9056 21.782 32.9242 24.4405 35.0497C28.6871 38.4127 32.9424 41.7665 37.1076 45.2149ZM41.4306 36.5862C42.1608 37.7454 42.9335 38.8832 43.6864 40.0265C43.2333 40.5775 42.7682 41.1267 42.2854 41.6712C42.029 41.3159 41.7691 40.9645 41.5143 40.6076C38.2803 36.1859 35.1366 31.6698 31.9845 27.1624C30.0273 24.3906 28.1697 21.5153 26.5833 18.3561C27.4926 17.6452 28.4049 16.981 29.3156 16.3621C29.3819 16.4869 29.4603 16.6148 29.5257 16.7395L31.8296 20.8758C34.9016 26.3055 38.1378 31.4907 41.4306 36.5862ZM49.917 12.7761C49.9622 12.6404 50.0243 12.5226 50.0743 12.3914C50.3367 12.6022 50.5896 12.8256 50.8215 13.0758C53.9838 16.4857 53.5391 22.8085 50.2786 29.7706C49.6297 25.9148 49.2081 22.1255 49.2026 18.5971C49.1865 16.4822 49.392 14.468 49.917 12.7761ZM39.617 11.3487C40.4542 11.1166 41.2717 10.9347 42.0602 10.815C42.2861 12.9294 42.6264 14.9865 43.003 17.0117C43.9764 22.058 45.5272 26.9904 47.1933 31.8644C47.4464 32.5912 47.7119 33.3143 47.9731 34.0384C47.605 34.6394 47.2136 35.2419 46.8081 35.8444C46.7233 35.6317 46.6322 35.4191 46.5483 35.2065C44.4089 29.9619 42.6075 24.695 41.1099 19.6072C40.7645 18.3448 40.3792 17.0704 40.1366 15.8349C39.9092 14.6121 39.7476 13.4002 39.6116 12.2091C39.5989 11.9145 39.6141 11.635 39.617 11.3487ZM10.1951 42.9637C11.3235 43.1177 12.4715 43.2984 13.6288 43.5486C14.7983 43.815 16.0035 44.2323 17.1975 44.6075C22.009 46.2305 26.9876 48.1754 31.9427 50.4766C32.0544 50.5269 32.1661 50.5818 32.2781 50.6322C31.677 51.0498 31.0763 51.4513 30.4776 51.828C29.9078 51.5947 29.3396 51.3553 28.7679 51.1282C24.1605 49.3292 19.497 47.6513 14.7202 46.5813C12.656 46.1349 10.5555 45.7348 8.38929 45.4801C8.50369 44.6657 8.66883 43.8262 8.89428 42.9611C9.32115 42.948 9.75024 42.9384 10.1951 42.9637ZM38.5778 55.1769C41.4836 54.5106 44.6167 52.6154 47.2425 49.6709C49.8685 46.7264 51.4702 43.3122 51.9225 40.213C60.6684 31.8414 61.0313 21.9756 58.6753 17.6452C59.9695 13.3837 59.8435 7.76834 57.8694 5.19183C56.4155 3.29453 53.8289 3.6799 51.1586 4.92239C50.2956 1.31179 46.0267 -0.769277 41.51 0.265508C37.8245 1.10995 35.105 3.77073 34.5722 6.71103C31.5423 6.21276 27.4479 7.41583 23.7045 10.2094C20.032 12.95 17.6159 16.5362 16.9943 19.6729C14.0636 20.5195 10.8176 23.2826 8.44894 27.3161C6.0344 31.4276 5.14683 35.811 5.80427 38.9696C3.05389 39.7108 0.702337 42.7365 0.129248 46.6675C-0.57337 51.4849 1.65845 55.8505 5.12881 56.5377C4.11639 59.4245 3.9103 62.1707 5.79537 63.5845C8.35502 65.5044 13.6777 65.2924 17.6317 63.669C21.8748 65.8834 31.1904 64.8958 38.5778 55.1769Z" fill="#D74447"/>
<path fill-rule="evenodd" clip-rule="evenodd" d="M38.4256 75.3995C41.3634 75.3995 43.745 76.1878 43.745 77.1602C43.745 78.1325 41.3634 78.9209 38.4256 78.9209C35.4876 78.9209 33.1062 78.1325 33.1062 77.1602C33.1062 76.1878 35.4876 75.3995 38.4256 75.3995ZM15.6803 78.3292C15.6803 83.9913 25.8637 88.5813 38.4256 88.5813C50.9875 88.5813 61.1709 83.9913 61.1709 78.3292C61.1709 72.6671 50.9875 68.0771 38.4256 68.0771C25.8637 68.0771 15.6803 72.6671 15.6803 78.3292Z" fill="#243032"/>
<path fill-rule="evenodd" clip-rule="evenodd" d="M38.4256 78.9209C41.3634 78.9209 43.745 78.1326 43.745 77.1602C43.745 76.1878 41.3634 75.3995 38.4256 75.3995C35.4876 75.3995 33.1062 76.1878 33.1062 77.1602C33.1062 78.1326 35.4876 78.9209 38.4256 78.9209Z" fill="#D74447"/>
<path fill-rule="evenodd" clip-rule="evenodd" d="M50.8213 13.0758C50.5894 12.8256 50.3366 12.6022 50.0742 12.3914C50.0241 12.5226 49.962 12.6405 49.9168 12.7761C49.3918 14.4681 49.1864 16.4822 49.2024 18.5971C49.208 22.1256 49.6295 25.9148 50.2785 29.7706C53.539 22.8085 53.9836 16.4858 50.8213 13.0758Z" fill="#FFFFFE"/>
<path fill-rule="evenodd" clip-rule="evenodd" d="M40.1367 15.8349C40.3793 17.0704 40.7645 18.3448 41.11 19.6072C42.6076 24.695 44.409 29.9619 46.5484 35.2064C46.6323 35.4191 46.7233 35.6317 46.8081 35.8443C47.2136 35.2419 47.6051 34.6394 47.9732 34.0383C47.712 33.3143 47.4464 32.5912 47.1934 31.8643C45.5273 26.9903 43.9765 22.0579 43.003 17.0117C42.6265 14.9865 42.2862 12.9293 42.0603 10.8149C41.2718 10.9346 40.4543 11.1165 39.617 11.3486C39.6141 11.635 39.599 11.9145 39.6117 12.209C39.7477 13.4001 39.9092 14.6121 40.1367 15.8349Z" fill="#FFFFFE"/>
<path fill-rule="evenodd" clip-rule="evenodd" d="M29.5258 16.7395C29.4603 16.6148 29.382 16.4869 29.3157 16.3621C28.4049 16.981 27.4927 17.6452 26.5833 18.3561C28.1697 21.5153 30.0274 24.3906 31.9846 27.1624C35.1367 31.6698 38.2803 36.1859 41.5143 40.6076C41.7691 40.9645 42.0291 41.3159 42.2855 41.6712C42.7682 41.1267 43.2334 40.5775 43.6865 40.0265C42.9336 38.8832 42.1608 37.7454 41.4306 36.5862C38.1379 31.4907 34.9017 26.3055 31.8297 20.8758L29.5258 16.7395Z" fill="#FFFFFE"/>
<path fill-rule="evenodd" clip-rule="evenodd" d="M13.9967 32C14.1892 32.1171 14.3862 32.2528 14.5783 32.3671L18.4806 34.8323C23.6026 38.1186 28.492 41.5757 33.2952 45.0919C34.3522 45.8462 35.39 46.6423 36.432 47.4208C36.9744 46.958 37.5154 46.4842 38.052 45.9899C37.7364 45.7324 37.4244 45.471 37.1077 45.2149C32.9425 41.7665 28.6872 38.4126 24.4405 35.0497C21.782 32.9242 19.0214 30.9056 15.9755 29.1855C15.2726 30.1215 14.6107 31.0607 13.9967 32Z" fill="#FFFFFE"/>
<path fill-rule="evenodd" clip-rule="evenodd" d="M26.0989 54.2304C22.6748 53.585 19.3153 53.1665 16.1701 53.1325C14.1646 53.0973 12.2528 53.2968 10.644 53.8356C10.4937 53.8899 10.3622 53.964 10.2178 54.0253C10.2674 54.0825 10.3117 54.1438 10.3633 54.1994C13.4912 57.5725 19.4442 57.3388 26.0989 54.2304Z" fill="#FFFFFE"/>
<path fill-rule="evenodd" clip-rule="evenodd" d="M8.38934 45.4801C10.5555 45.7348 12.656 46.1349 14.7203 46.5813C19.497 47.6513 24.1605 49.3292 28.7679 51.1281C29.3397 51.3553 29.9079 51.5947 30.4776 51.828C31.0763 51.4513 31.677 51.0498 32.2781 50.6322C32.1662 50.5818 32.0545 50.5269 31.9427 50.4766C26.9877 48.1754 22.0091 46.2305 17.1976 44.6075C16.0035 44.2322 14.7984 43.815 13.6288 43.5486C12.4715 43.2984 11.3236 43.1177 10.1952 42.9637C9.75029 42.9384 9.3212 42.948 8.89433 42.9611C8.66888 43.8262 8.50374 44.6657 8.38934 45.4801Z" fill="#FFFFFE"/>
</svg>
