<svg width="98" height="90" viewBox="0 0 98 90" fill="none" xmlns="http://www.w3.org/2000/svg">
<mask id="mask0" mask-type="alpha" maskUnits="userSpaceOnUse" x="34" y="18" width="64" height="32">
<path d="M34.406 25.1814C38.6342 20.9404 44.2449 18.713 50.2253 18.7722C56.1973 18.8796 61.7306 21.3544 65.8032 25.7421L73.6628 34.2023L84.7691 23.0628C87.7256 20.095 92.5226 20.095 95.482 23.0609C98.4404 26.0274 98.4404 30.8389 95.4829 33.8067L84.0455 45.2797C81.1942 48.135 77.433 49.6669 73.3878 49.5964C69.3653 49.5231 65.6385 47.8563 62.8957 44.9036L54.7167 36.0985C53.4705 34.7563 41.8011 22.9952 34.406 25.1814Z" fill="white"/>
</mask>
<g mask="url(#mask0)">
<path fill-rule="evenodd" clip-rule="evenodd" d="M34.406 25.1814C38.6342 20.9404 44.2449 18.713 50.2253 18.7722C56.1973 18.8796 61.7306 21.3544 65.8032 25.7421L73.6628 34.2023L84.7691 23.0628C87.7256 20.095 92.5226 20.095 95.482 23.0609C98.4404 26.0274 98.4404 30.8389 95.4829 33.8067L84.0455 45.2797C81.1942 48.135 77.433 49.6669 73.3878 49.5964C69.3653 49.5231 65.6385 47.8563 62.8957 44.9036L54.7167 36.0985C53.4705 34.7563 41.8011 22.9952 34.406 25.1814Z" fill="url(#paint0_linear)"/>
</g>
<mask id="mask1" mask-type="alpha" maskUnits="userSpaceOnUse" x="20" y="24" width="35" height="26">
<path d="M54.7168 36.0985C53.4706 34.7563 51.7805 33.9993 49.9542 33.9667C48.0981 33.9615 46.4114 34.6295 45.118 35.9268L33.4269 47.6519C30.4694 50.6188 25.6724 50.6188 22.7149 47.6519C19.7579 44.6855 19.7579 39.8744 22.7149 36.908L34.4061 25.1814C38.6342 20.9404 47.6807 29.043 54.7168 36.0985Z" fill="white"/>
</mask>
<g mask="url(#mask1)">
<path fill-rule="evenodd" clip-rule="evenodd" d="M54.7168 36.0985C53.4706 34.7563 51.7805 33.9993 49.9542 33.9667C48.0981 33.9615 46.4114 34.6295 45.118 35.9268L33.4269 47.6519C30.4694 50.6188 25.6724 50.6188 22.7149 47.6519C19.7579 44.6855 19.7579 39.8744 22.7149 36.908L34.4061 25.1814C38.6342 20.9404 47.6807 29.043 54.7168 36.0985Z" fill="url(#paint1_linear)"/>
</g>
<mask id="mask2" mask-type="alpha" maskUnits="userSpaceOnUse" x="61" y="0" width="22" height="22">
<path d="M82.971 10.7723C82.971 16.7212 78.1636 21.5441 72.2327 21.5441C66.2994 21.5441 61.4929 16.7212 61.4929 10.7723C61.4929 4.82291 66.2994 0 72.2327 0C78.1636 0 82.971 4.82291 82.971 10.7723Z" fill="white"/>
</mask>
<g mask="url(#mask2)">
<path fill-rule="evenodd" clip-rule="evenodd" d="M82.971 10.7723C82.971 16.7212 78.1636 21.5441 72.2327 21.5441C66.2994 21.5441 61.4929 16.7212 61.4929 10.7723C61.4929 4.82291 66.2994 0 72.2327 0C78.1636 0 82.971 4.82291 82.971 10.7723Z" fill="url(#paint2_linear)"/>
</g>
<mask id="mask3" mask-type="alpha" maskUnits="userSpaceOnUse" x="0" y="40" width="90" height="50">
<path d="M51.5343 41.0402C50.6037 40.1053 49.0915 40.1053 48.1604 41.0402L31.168 58.0779C29.81 59.4381 28.0049 60.188 26.087 60.188C24.1668 60.188 22.3635 59.4381 21.0074 58.0779L12.9327 49.9787C9.97522 47.0109 5.1782 47.0109 2.21933 49.9768C-0.73954 52.9432 -0.739541 57.7543 2.21791 60.7221L10.2922 68.8214C14.5105 73.0543 20.1197 75.3834 26.087 75.3834C32.0524 75.3834 37.6612 73.0533 41.8799 68.8214L49.8443 60.8343L76.7048 87.7752C79.6627 90.7416 84.4597 90.7416 87.4167 87.7752C90.3746 84.8092 90.3746 79.9972 87.4167 77.0317L51.5343 41.0402Z" fill="white"/>
</mask>
<g mask="url(#mask3)">
<path fill-rule="evenodd" clip-rule="evenodd" d="M51.5343 41.0402C50.6037 40.1053 49.0915 40.1053 48.1604 41.0402L31.168 58.0779C29.81 59.4381 28.0049 60.188 26.087 60.188C24.1668 60.188 22.3635 59.4381 21.0074 58.0779L12.9327 49.9787C9.97522 47.0109 5.1782 47.0109 2.21933 49.9768C-0.73954 52.9432 -0.739541 57.7543 2.21791 60.7221L10.2922 68.8214C14.5105 73.0543 20.1197 75.3834 26.087 75.3834C32.0524 75.3834 37.6612 73.0533 41.8799 68.8214L49.8443 60.8343L76.7048 87.7752C79.6627 90.7416 84.4597 90.7416 87.4167 87.7752C90.3746 84.8092 90.3746 79.9972 87.4167 77.0317L51.5343 41.0402Z" fill="url(#paint3_linear)"/>
</g>
<mask id="mask4" mask-type="alpha" maskUnits="userSpaceOnUse" x="49" y="54" width="41" height="36">
<path d="M49.8442 60.8343L76.7047 87.7752C79.6627 90.7416 84.4597 90.7416 87.4167 87.7752C90.3746 84.8092 90.3746 79.9972 87.4167 77.0317C87.4167 77.0317 70.8823 60.4468 66.8819 56.4343C62.8806 52.4204 57.0242 53.6306 49.8442 60.8343Z" fill="white"/>
</mask>
<g mask="url(#mask4)">
</g>
<defs>
<linearGradient id="paint0_linear" x1="34.406" y1="34.1848" x2="97.7008" y2="34.1848" gradientUnits="userSpaceOnUse">
<stop stop-color="#00FFDD"/>
<stop offset="1" stop-color="#00D3FF"/>
</linearGradient>
<linearGradient id="paint1_linear" x1="20.4971" y1="36.943" x2="54.7165" y2="36.943" gradientUnits="userSpaceOnUse">
<stop stop-color="#00D5F1"/>
<stop offset="1" stop-color="#1051B3"/>
</linearGradient>
<linearGradient id="paint2_linear" x1="61.4929" y1="10.7718" x2="82.9711" y2="10.7718" gradientUnits="userSpaceOnUse">
<stop stop-color="#00FFDD"/>
<stop offset="1" stop-color="#00D3FF"/>
</linearGradient>
<linearGradient id="paint3_linear" x1="-0.000412691" y1="65.1699" x2="89.635" y2="65.1699" gradientUnits="userSpaceOnUse">
<stop stop-color="#00FFDD"/>
<stop offset="1" stop-color="#00D3FF"/>
</linearGradient>
</defs>
</svg>
