<?xml version="1.0" encoding="utf-8"?>
<!-- Generator: Adobe Illustrator 23.0.3, SVG Export Plug-In . SVG Version: 6.00 Build 0)  -->
<svg version="1.1" id="Layer_1" xmlns="http://www.w3.org/2000/svg" xmlns:xlink="http://www.w3.org/1999/xlink" x="0px" y="0px"
	 viewBox="0 0 42 42" style="enable-background:new 0 0 42 42;" xml:space="preserve">
<style type="text/css">
	.st0{fill:#B0B8C6;}
</style>
<g>
	<path class="st0" d="M21,41.5C9.7,41.5,0.5,32.3,0.5,21S9.7,0.5,21,0.5S41.5,9.7,41.5,21S32.3,41.5,21,41.5z M21,1.5
		C10.2,1.5,1.5,10.2,1.5,21c0,10.8,8.7,19.5,19.5,19.5c10.8,0,19.5-8.7,19.5-19.5C40.5,10.2,31.8,1.5,21,1.5z"/>
</g>
<path class="st0" d="M32.9,29l-5-5.7c-0.3-0.3-0.1-0.8,0.4-0.8h0.6c1.3,0,2-1.5,1.1-2.5l-4.2-4.8c-0.2-0.3,0-0.7,0.3-0.7
	c1.2,0,1.9-1.4,1.1-2.3l-5-6.5c-0.6-0.8-1.8-0.8-2.4,0l-5,6.5c-0.7,0.9-0.1,2.3,1.1,2.3c0.4,0,0.6,0.4,0.3,0.7L12.1,20
	c-0.8,1-0.2,2.5,1.1,2.5h0.6c0.4,0,0.7,0.5,0.4,0.8l-5,5.7c-0.9,1-0.2,2.5,1.1,2.5h6.9c0.3,0,0.5,0.2,0.5,0.5v3
	c0,0.8,0.7,1.5,1.5,1.5h3c0.8,0,1.5-0.7,1.5-1.5v-3c0-0.3,0.2-0.5,0.5-0.5h7.6C33.1,31.5,33.8,30,32.9,29z M31.8,30.5h-7.6
	c-0.8,0-1.5,0.7-1.5,1.5v3c0,0.3-0.2,0.5-0.5,0.5h-3c-0.3,0-0.5-0.2-0.5-0.5v-3c0-0.8-0.7-1.5-1.5-1.5h-6.9c-0.4,0-0.7-0.5-0.4-0.8
	l5-5.7c0.9-1,0.2-2.5-1.1-2.5h-0.6c-0.4,0-0.7-0.5-0.4-0.8l4.2-4.8c0.8-0.9,0.2-2.4-1.1-2.4c-0.4,0-0.6-0.4-0.3-0.7l5-6.5
	c0.2-0.3,0.6-0.3,0.8,0l5,6.5c0.2,0.3,0,0.7-0.3,0.7c-1.2,0-1.9,1.5-1.1,2.4l4.2,4.8c0.3,0.3,0.1,0.8-0.4,0.8h-0.6
	c-1.3,0-2,1.5-1.1,2.5l5,5.7C32.4,30,32.2,30.5,31.8,30.5z"/>
</svg>
