<svg width="143" height="40" viewBox="0 0 143 40" fill="none" xmlns="http://www.w3.org/2000/svg">
<path fill-rule="evenodd" clip-rule="evenodd" d="M11.2649 4.21143C6.14804 4.21143 2 8.35947 2 13.4763V18.1088C2 22.9327 5.68669 26.8956 10.3962 27.3335V32.9741C10.3962 34.0059 11.6437 34.5226 12.3732 33.793L18.7926 27.3737H25.1623C30.2791 27.3737 34.4272 23.2256 34.4272 18.1088V13.4763C34.4272 8.35946 30.2791 4.21143 25.1623 4.21143H11.2649Z" fill="white"/>
<path d="M10.3962 27.3335H12.1334V25.7504L10.5571 25.6038L10.3962 27.3335ZM18.7926 27.3737V25.6365H18.073L17.5642 26.1453L18.7926 27.3737ZM3.73717 13.4763C3.73717 9.31888 7.10745 5.9486 11.2649 5.9486V2.47426C5.18863 2.47426 0.262831 7.40006 0.262831 13.4763H3.73717ZM3.73717 18.1088V13.4763H0.262831V18.1088H3.73717ZM10.5571 25.6038C6.73242 25.2481 3.73717 22.0272 3.73717 18.1088H0.262831C0.262831 23.8382 4.64097 28.543 10.2354 29.0632L10.5571 25.6038ZM12.1334 32.9741V27.3335H8.65906V32.9741H12.1334ZM11.1449 32.5647C11.5097 32.1999 12.1334 32.4582 12.1334 32.9741H8.65906C8.65906 35.5535 11.7777 36.8453 13.6016 35.0214L11.1449 32.5647ZM17.5642 26.1453L11.1449 32.5647L13.6016 35.0214L20.021 28.602L17.5642 26.1453ZM25.1623 25.6365H18.7926V29.1109H25.1623V25.6365ZM32.69 18.1088C32.69 22.2662 29.3197 25.6365 25.1623 25.6365V29.1109C31.2385 29.1109 36.1643 24.1851 36.1643 18.1088H32.69ZM32.69 13.4763V18.1088H36.1643V13.4763H32.69ZM25.1623 5.9486C29.3197 5.9486 32.69 9.31888 32.69 13.4763H36.1643C36.1643 7.40005 31.2385 2.47426 25.1623 2.47426V5.9486ZM11.2649 5.9486H25.1623V2.47426H11.2649V5.9486Z" fill="#75849C"/>
<g filter="url(#filter0_d)">
<path d="M17.255 14.0107L18.5389 29.927C18.6176 30.9021 19.795 31.3465 20.4983 30.6665L23.4699 27.7933L27.4424 34.6739C27.7622 35.2278 28.4705 35.4176 29.0244 35.0978L31.4444 33.7006C31.9983 33.3808 32.1881 32.6725 31.8683 32.1186L27.8957 25.238L31.8698 24.1012C32.8103 23.8321 33.0142 22.5902 32.2091 22.0346L19.0672 12.9645C18.2636 12.4098 17.1765 13.0375 17.255 14.0107Z" fill="#FFBF2E"/>
</g>
<path d="M51.963 11.9828C51.9213 11.9272 51.7754 11.823 51.5252 11.6701C51.2751 11.5172 50.9624 11.3574 50.5871 11.1907C50.2119 11.0239 49.8019 10.878 49.3572 10.7529C48.9125 10.6278 48.4678 10.5653 48.0231 10.5653C46.8001 10.5653 46.1886 10.9752 46.1886 11.7952C46.1886 12.0453 46.2512 12.2538 46.3762 12.4206C46.5152 12.5873 46.7098 12.7402 46.9599 12.8792C47.224 13.0043 47.5506 13.1224 47.9397 13.2336C48.3288 13.3447 48.7805 13.4698 49.2947 13.6088C50.0035 13.8034 50.6427 14.0188 51.2125 14.255C51.7823 14.4774 52.2618 14.7623 52.6509 15.1097C53.0539 15.4432 53.3597 15.8532 53.5681 16.3396C53.7905 16.826 53.9017 17.4097 53.9017 18.0907C53.9017 18.9245 53.7418 19.6333 53.4222 20.217C53.1165 20.7868 52.7065 21.2523 52.1923 21.6137C51.6781 21.9611 51.0874 22.2182 50.4204 22.385C49.7533 22.5378 49.0654 22.6143 48.3566 22.6143C47.8146 22.6143 47.2587 22.5726 46.6889 22.4892C46.1191 22.4058 45.5632 22.2877 45.0213 22.1348C44.4793 21.9681 43.9512 21.7735 43.437 21.5511C42.9366 21.3288 42.4711 21.0717 42.0403 20.7798L43.5412 17.7988C43.5968 17.8683 43.7774 18.0004 44.0832 18.1949C44.3889 18.3895 44.7641 18.584 45.2089 18.7786C45.6675 18.9732 46.1747 19.1469 46.7306 19.2998C47.2865 19.4526 47.8494 19.5291 48.4192 19.5291C49.6282 19.5291 50.2328 19.1608 50.2328 18.4242C50.2328 18.1463 50.1424 17.917 49.9618 17.7363C49.7811 17.5556 49.5309 17.3958 49.2113 17.2568C48.8917 17.104 48.5095 16.965 48.0648 16.8399C47.634 16.7149 47.1614 16.5759 46.6472 16.423C45.9663 16.2145 45.3756 15.9922 44.8753 15.7559C44.375 15.5058 43.9581 15.2209 43.6246 14.9012C43.3049 14.5816 43.0617 14.2133 42.895 13.7964C42.7421 13.3795 42.6656 12.8931 42.6656 12.3372C42.6656 11.5589 42.8116 10.871 43.1034 10.2734C43.3953 9.67584 43.7913 9.17553 44.2916 8.77251C44.7919 8.35559 45.3687 8.0429 46.0219 7.83444C46.6889 7.62598 47.3907 7.52175 48.1273 7.52175C48.6415 7.52175 49.1488 7.57039 49.6491 7.66767C50.1494 7.76495 50.6288 7.89003 51.0874 8.0429C51.5461 8.19577 51.9699 8.36949 52.3591 8.56405C52.7621 8.75861 53.1304 8.95318 53.4639 9.14774L51.963 11.9828ZM67.5815 22.4475V13.5879L64.3713 20.0294H62.5368L59.3265 13.5879V22.4475H55.9078V7.64683H59.6184L63.454 15.3807L67.3105 7.64683H71.0003V22.4475H67.5815ZM82.7231 11.9828C82.6814 11.9272 82.5355 11.823 82.2853 11.6701C82.0352 11.5172 81.7225 11.3574 81.3473 11.1907C80.972 11.0239 80.5621 10.878 80.1173 10.7529C79.6726 10.6278 79.2279 10.5653 78.7832 10.5653C77.5602 10.5653 76.9487 10.9752 76.9487 11.7952C76.9487 12.0453 77.0113 12.2538 77.1364 12.4206C77.2753 12.5873 77.4699 12.7402 77.72 12.8792C77.9841 13.0043 78.3107 13.1224 78.6998 13.2336C79.0889 13.3447 79.5406 13.4698 80.0548 13.6088C80.7636 13.8034 81.4028 14.0188 81.9726 14.255C82.5424 14.4774 83.0219 14.7623 83.411 15.1097C83.814 15.4432 84.1198 15.8532 84.3282 16.3396C84.5506 16.826 84.6618 17.4097 84.6618 18.0907C84.6618 18.9245 84.502 19.6333 84.1823 20.217C83.8766 20.7868 83.4666 21.2523 82.9524 21.6137C82.4382 21.9611 81.8476 22.2182 81.1805 22.385C80.5134 22.5378 79.8255 22.6143 79.1167 22.6143C78.5747 22.6143 78.0188 22.5726 77.449 22.4892C76.8793 22.4058 76.3234 22.2877 75.7814 22.1348C75.2394 21.9681 74.7113 21.7735 74.1971 21.5511C73.6968 21.3288 73.2312 21.0717 72.8004 20.7798L74.3013 17.7988C74.3569 17.8683 74.5375 18.0004 74.8433 18.1949C75.149 18.3895 75.5243 18.584 75.969 18.7786C76.4276 18.9732 76.9348 19.1469 77.4907 19.2998C78.0466 19.4526 78.6095 19.5291 79.1793 19.5291C80.3883 19.5291 80.9929 19.1608 80.9929 18.4242C80.9929 18.1463 80.9025 17.917 80.7219 17.7363C80.5412 17.5556 80.2911 17.3958 79.9714 17.2568C79.6518 17.104 79.2696 16.965 78.8249 16.8399C78.3941 16.7149 77.9216 16.5759 77.4074 16.423C76.7264 16.2145 76.1357 15.9922 75.6354 15.7559C75.1351 15.5058 74.7182 15.2209 74.3847 14.9012C74.065 14.5816 73.8218 14.2133 73.6551 13.7964C73.5022 13.3795 73.4258 12.8931 73.4258 12.3372C73.4258 11.5589 73.5717 10.871 73.8635 10.2734C74.1554 9.67584 74.5514 9.17553 75.0518 8.77251C75.5521 8.35559 76.1288 8.0429 76.782 7.83444C77.449 7.62598 78.1509 7.52175 78.8874 7.52175C79.4016 7.52175 79.9089 7.57039 80.4092 7.66767C80.9095 7.76495 81.3889 7.89003 81.8476 8.0429C82.3062 8.19577 82.73 8.36949 83.1192 8.56405C83.5222 8.75861 83.8905 8.95318 84.224 9.14774L82.7231 11.9828ZM102.221 10.6487H97.7179V22.4475H94.2992V10.6487H89.7756V7.64683H102.221V10.6487ZM106.449 22.656C105.518 22.656 104.684 22.5031 103.947 22.1974C103.225 21.8916 102.613 21.4816 102.113 20.9674C101.613 20.4393 101.231 19.8348 100.966 19.1538C100.716 18.459 100.591 17.7363 100.591 16.9858C100.591 16.2354 100.716 15.5197 100.966 14.8387C101.231 14.1438 101.613 13.5393 102.113 13.0251C102.613 12.497 103.225 12.0801 103.947 11.7743C104.684 11.4547 105.518 11.2949 106.449 11.2949C107.38 11.2949 108.207 11.4547 108.93 11.7743C109.652 12.0801 110.264 12.497 110.764 13.0251C111.264 13.5393 111.647 14.1438 111.911 14.8387C112.175 15.5197 112.307 16.2354 112.307 16.9858C112.307 17.7363 112.175 18.459 111.911 19.1538C111.66 19.8348 111.285 20.4393 110.785 20.9674C110.285 21.4816 109.666 21.8916 108.93 22.1974C108.207 22.5031 107.38 22.656 106.449 22.656ZM104.01 16.9858C104.01 17.8475 104.239 18.5424 104.698 19.0705C105.157 19.5847 105.74 19.8418 106.449 19.8418C106.796 19.8418 107.116 19.7723 107.408 19.6333C107.7 19.4943 107.95 19.2998 108.158 19.0496C108.381 18.7995 108.554 18.5007 108.68 18.1532C108.805 17.7919 108.867 17.4028 108.867 16.9858C108.867 16.1242 108.638 15.4363 108.179 14.9221C107.721 14.394 107.144 14.1299 106.449 14.1299C106.102 14.1299 105.775 14.1994 105.469 14.3384C105.177 14.4774 104.92 14.6719 104.698 14.9221C104.489 15.1722 104.323 15.478 104.198 15.8393C104.073 16.1868 104.01 16.5689 104.01 16.9858ZM119.172 22.656C118.241 22.656 117.407 22.5031 116.671 22.1974C115.948 21.8916 115.337 21.4816 114.836 20.9674C114.336 20.4393 113.954 19.8348 113.69 19.1538C113.44 18.459 113.315 17.7363 113.315 16.9858C113.315 16.2354 113.44 15.5197 113.69 14.8387C113.954 14.1438 114.336 13.5393 114.836 13.0251C115.337 12.497 115.948 12.0801 116.671 11.7743C117.407 11.4547 118.241 11.2949 119.172 11.2949C120.104 11.2949 120.93 11.4547 121.653 11.7743C122.376 12.0801 122.987 12.497 123.488 13.0251C123.988 13.5393 124.37 14.1438 124.634 14.8387C124.898 15.5197 125.03 16.2354 125.03 16.9858C125.03 17.7363 124.898 18.459 124.634 19.1538C124.384 19.8348 124.009 20.4393 123.508 20.9674C123.008 21.4816 122.39 21.8916 121.653 22.1974C120.93 22.5031 120.104 22.656 119.172 22.656ZM116.733 16.9858C116.733 17.8475 116.963 18.5424 117.421 19.0705C117.88 19.5847 118.464 19.8418 119.172 19.8418C119.52 19.8418 119.839 19.7723 120.131 19.6333C120.423 19.4943 120.673 19.2998 120.882 19.0496C121.104 18.7995 121.278 18.5007 121.403 18.1532C121.528 17.7919 121.591 17.4028 121.591 16.9858C121.591 16.1242 121.361 15.4363 120.903 14.9221C120.444 14.394 119.867 14.1299 119.172 14.1299C118.825 14.1299 118.498 14.1994 118.193 14.3384C117.901 14.4774 117.644 14.6719 117.421 14.9221C117.213 15.1722 117.046 15.478 116.921 15.8393C116.796 16.1868 116.733 16.5689 116.733 16.9858ZM126.643 7.22991H129.978V18.5493C129.978 19.3831 130.332 19.8001 131.041 19.8001C131.208 19.8001 131.389 19.7792 131.583 19.7375C131.792 19.6819 131.979 19.6055 132.146 19.5082L132.584 22.0097C132.167 22.2043 131.687 22.3572 131.145 22.4684C130.603 22.5795 130.096 22.6351 129.624 22.6351C128.665 22.6351 127.928 22.385 127.414 21.8847C126.9 21.3844 126.643 20.6617 126.643 19.7167V7.22991ZM137.982 22.656C137.051 22.656 136.134 22.51 135.23 22.2182C134.327 21.9125 133.563 21.4747 132.937 20.9049L134.125 18.862C134.793 19.3206 135.439 19.675 136.064 19.9251C136.703 20.1753 137.315 20.3004 137.899 20.3004C138.329 20.3004 138.663 20.2239 138.899 20.0711C139.135 19.9182 139.254 19.6958 139.254 19.404C139.254 19.1121 139.101 18.8828 138.795 18.7161C138.503 18.5354 137.982 18.3478 137.232 18.1532C136.495 17.9448 135.87 17.7433 135.355 17.5487C134.855 17.3541 134.445 17.1387 134.125 16.9025C133.806 16.6662 133.577 16.3952 133.438 16.0895C133.299 15.7837 133.229 15.4224 133.229 15.0055C133.229 14.4496 133.34 13.9423 133.563 13.4837C133.785 13.0251 134.091 12.636 134.48 12.3163C134.869 11.9967 135.328 11.7465 135.856 11.5659C136.398 11.3852 136.981 11.2949 137.607 11.2949C138.427 11.2949 139.191 11.4061 139.9 11.6284C140.623 11.8508 141.317 12.2538 141.984 12.8375L140.692 14.8387C140.067 14.4079 139.511 14.0952 139.024 13.9006C138.538 13.7061 138.065 13.6088 137.607 13.6088C137.245 13.6088 136.94 13.6852 136.69 13.8381C136.439 13.9771 136.314 14.2064 136.314 14.526C136.314 14.8318 136.446 15.0611 136.71 15.2139C136.988 15.3668 137.496 15.5336 138.232 15.7142C139.01 15.9227 139.664 16.1312 140.192 16.3396C140.734 16.5481 141.171 16.7843 141.505 17.0484C141.839 17.2985 142.082 17.5904 142.235 17.9239C142.387 18.2575 142.464 18.6535 142.464 19.1121C142.464 20.1961 142.061 21.0578 141.255 21.6971C140.449 22.3363 139.358 22.656 137.982 22.656Z" fill="#212D40"/>
<defs>
<filter id="filter0_d" x="10.8955" y="8.91113" width="26.2728" height="30.6497" filterUnits="userSpaceOnUse" color-interpolation-filters="sRGB">
<feFlood flood-opacity="0" result="BackgroundImageFix"/>
<feColorMatrix in="SourceAlpha" type="matrix" values="0 0 0 0 0 0 0 0 0 0 0 0 0 0 0 0 0 0 127 0"/>
<feOffset dy="1.15811"/>
<feColorMatrix type="matrix" values="0 0 0 0 0.980392 0 0 0 0 0.615686 0 0 0 0 0.235294 0 0 0 1 0"/>
<feBlend mode="normal" in2="BackgroundImageFix" result="effect1_dropShadow"/>
<feBlend mode="normal" in="SourceGraphic" in2="effect1_dropShadow" result="shape"/>
</filter>
</defs>
</svg>
