<svg width="913" height="144" fill="none" xmlns="http://www.w3.org/2000/svg"><path fill-rule="evenodd" clip-rule="evenodd" d="M0 100.009l6.437-8.321c6.908 6.751 17.584 12.089 28.574 12.089 13.031 0 22.294-7.379 22.294-18.84 0-13.171-12.345-18.618-25.332-24.349C17.56 54.228 2.355 47.52 2.355 29.516 2.355 11.461 17.584 0 37.052 0c10.362 0 21.666 3.611 29.202 10.676l-5.338 9.106c-5.966-5.652-15.543-9.42-24.335-9.42-12.56 0-23.079 6.908-23.079 18.526 0 12.304 11.817 17.383 24.491 22.83 14.656 6.3 30.459 13.092 30.459 32.12 0 16.956-12.403 30.301-33.755 30.301-12.717 0-25.591-5.024-34.697-14.13zm83.335-84.78V1.884h11.618v13.345H83.335zm.471 18.055v78.971h10.676V33.284H83.806zm30.74 78.971V33.284h10.519v12.403c0 3.454-.628 6.28-.628 6.28h.314c3.925-10.676 16.642-20.567 29.045-20.567 14.601 0 22.137 6.908 24.335 19.782h.314C182.841 41.134 194.302 31.4 207.49 31.4c19.154 0 26.219 11.147 26.219 30.615v50.24h-10.676V64.684c0-13.031-2.669-23.393-16.956-23.393-15.857 0-26.533 16.485-26.533 32.813v38.151h-10.676V64.684c0-11.932-1.727-23.393-16.642-23.393-16.014 0-27.004 16.799-27.004 32.813v38.151h-10.676zm138.442-78.971v110.371h10.676v-38.308c0-4.082-.471-6.908-.471-6.908h.314c5.181 9.891 14.915 15.7 26.062 15.7 20.567 0 35.325-16.328 35.325-41.448 0-24.335-13.031-41.291-34.383-41.291-12.246 0-22.608 6.123-27.475 16.328h-.314s.471-2.669.471-6.123v-8.321h-10.205zm10.362 39.721c0 15.857 8.949 31.557 25.12 31.557 13.973 0 25.591-11.618 25.591-31.714 0-19.311-10.362-31.714-25.12-31.714-13.188 0-25.591 9.42-25.591 31.871zm76.741-71.121v91.688c0 17.27 11.775 19.311 18.212 19.311 1.727 0 2.983-.157 3.925-.314v-9.577c-.942.157-1.884.157-2.512.157-4.082 0-8.949-1.57-8.949-11.932V1.884h-10.676zm27.914 70.964c0-25.905 17.741-41.448 39.093-41.448 21.823 0 32.97 16.799 32.97 36.424 0 1.727-.157 3.611-.314 5.338h-60.602c.471 20.096 14.287 31.243 30.615 31.243 8.635 0 17.584-3.611 24.021-9.42l4.867 8.164c-7.379 6.751-18.84 10.99-29.202 10.99-23.55 0-41.448-16.956-41.448-41.291zm61.23-8.164h-49.612c2.512-15.857 13.973-24.492 27.161-24.492 11.775 0 21.823 8.007 22.451 24.492z" fill="#000E24" fill-opacity=".87"/><path fill-rule="evenodd" clip-rule="evenodd" d="M469.238 11.618v100.637h10.833V11.618h39.721V1.884h-90.118v9.734h39.564zM547.549 31.4c-21.352 0-39.093 15.543-39.093 41.448 0 24.335 17.898 41.291 41.448 41.291 10.362 0 21.823-4.239 29.202-10.99l-4.867-8.164c-6.437 5.809-15.386 9.42-24.021 9.42-16.328 0-30.144-11.147-30.615-31.243h60.602c.157-1.727.314-3.611.314-5.338 0-19.625-11.147-36.424-32.97-36.424zm-27.475 33.284h49.612c-.628-16.485-10.676-24.492-22.451-24.492-13.188 0-24.649 8.635-27.161 24.492zm92.598 6.437l-27.632 41.134h12.403l19.311-29.673a112.337 112.337 0 002.669-4.396h.314s1.256 2.355 2.669 4.396l19.154 29.673h12.56l-27.789-41.134 25.434-37.837h-12.403l-16.956 26.533c-1.256 2.041-2.669 4.553-2.669 4.553h-.314s-1.413-2.512-2.669-4.553l-16.956-26.533h-12.56l25.434 37.837zm54.604 12.403V42.861h-10.362v-8.949h10.519V11.461h10.519v22.451h19.939v8.949h-19.939v39.564c0 18.369 11.775 20.881 17.898 20.881 1.099 0 2.198 0 3.611-.314v9.577c-.942.157-2.512.314-4.553.314-9.106 0-27.632-2.983-27.632-29.359zm42.358-81.64v13.345h11.618V1.884h-11.618zm.471 110.371V33.284h10.676v78.971h-10.676zm30.74-78.971v78.971h10.676V73.633c0-18.369 13.188-32.185 29.987-32.185 15.229 0 17.27 10.99 17.27 23.393v47.414h10.676v-50.24c0-19.468-6.908-30.615-26.533-30.615-18.526 0-28.888 13.345-31.871 20.567h-.314s.628-2.826.628-6.28V33.284h-10.519zM912.404 81.107c-3.208 49.065-40.911 48.148-43.783 48.148-1 0-1.399-1.161 0-2 5-3 9-7 10-14 0-.5 0-1-1-1h-18.138c-9.272 0-15.277-1.485-20.492-4.274-5.214-2.789-9.307-6.882-12.096-12.096-2.789-5.215-4.274-11.22-4.274-20.492v-5.276c0-9.272 1.485-15.277 4.274-20.492 2.789-5.214 6.882-9.307 12.096-12.096 5.215-2.789 11.22-4.274 20.492-4.274h16.276c9.272 0 15.277 1.485 20.492 4.274 5.214 2.789 9.307 6.882 12.096 12.096 2.789 5.215 4.274 11.22 4.274 20.492v5.276c0 2.056-.073 3.952-.217 5.714z" fill="#2399F0"/><rect x="837.621" y="77.255" width="33" height="12" rx="2" fill="#fff"/><rect x="837.621" y="56.255" width="60" height="12" rx="2" fill="#fff"/></svg>