<svg width="101" height="73" viewBox="0 0 101 73" fill="none" xmlns="http://www.w3.org/2000/svg">
<path fill-rule="evenodd" clip-rule="evenodd" d="M50.0286 0C62.5443 0 72.6913 9.97673 72.6913 22.2849C72.6913 34.5931 62.5443 44.5698 50.0286 44.5698C37.5119 44.5698 27.366 34.5931 27.366 22.2849C27.366 9.97673 37.5119 0 50.0286 0Z" fill="#E67E78"/>
<path fill-rule="evenodd" clip-rule="evenodd" d="M69.8158 24.4813C69.5365 24.0497 69.1057 23.7496 68.5998 23.6376C68.358 23.5834 68.1139 23.5453 67.8721 23.498C68.6609 23.2914 69.2665 22.6046 69.3123 21.7609C69.3405 21.2508 69.1667 20.7602 68.8193 20.3805C68.4731 19.9996 67.9965 19.7757 67.4789 19.7469C66.1291 19.6753 64.865 19.7469 63.7206 19.8946C63.271 18.8997 62.6548 17.9891 61.9165 16.9895C62.0022 16.8707 62.0844 16.7425 62.1618 16.604C63.2147 14.7193 62.9447 8.3355 61.4705 7.54027C61.2639 7.42716 61.0022 7.37061 60.6935 7.37061C58.954 7.37061 55.2062 9.34425 53.6898 11.289C51.0923 10.5988 48.3774 10.6312 45.8562 11.3352C44.3609 9.36734 40.5943 7.37061 38.8161 7.37061C38.5074 7.37061 38.2457 7.42716 38.0391 7.54027C36.5649 8.3355 36.2949 14.7193 37.3489 16.604C37.4639 16.8106 37.586 16.993 37.7198 17.1546C36.89 18.3065 36.2386 19.3106 35.8066 20.4452C34.8042 20.339 33.7232 20.294 32.58 20.3563C32.0612 20.3828 31.5835 20.6079 31.2372 20.9888C30.891 21.3697 30.7161 21.859 30.7443 22.3692C30.7912 23.214 31.3922 23.8985 32.1856 24.1062C31.9438 24.1547 31.6997 24.1928 31.4591 24.2459C30.952 24.3578 30.5201 24.6579 30.2419 25.0896C29.9649 25.5212 29.8745 26.0337 29.9896 26.5311C30.1903 27.4095 30.9696 28.0235 31.8851 28.0235C32.0272 28.0235 32.1704 28.0073 32.3124 27.9762C32.8594 27.8561 33.411 27.7557 33.965 27.6669C33.3828 27.9612 32.8065 28.2867 32.2502 28.6548C31.364 29.2458 31.1293 30.4357 31.7302 31.3095C32.0917 31.8358 32.6939 32.1508 33.3406 32.1508C33.7303 32.1508 34.1059 32.0377 34.4286 31.8231C35.2162 31.2991 36.0871 30.872 36.9475 30.5246C39.356 34.6069 44.0721 37.1992 49.8774 37.1992C55.9621 37.1992 60.8508 34.353 63.1384 29.9291C63.9905 30.273 64.8509 30.6966 65.6291 31.2148C65.953 31.4283 66.3286 31.5414 66.716 31.5414C67.3639 31.5414 67.966 31.2275 68.3287 30.7C68.9285 29.8286 68.6949 28.6375 67.8075 28.0466C67.2512 27.6772 66.6737 27.3529 66.0927 27.0586C66.6467 27.1463 67.1995 27.2479 67.7465 27.3679C67.8862 27.3991 68.0306 27.4141 68.1726 27.4141C69.0881 27.4141 69.8686 26.8012 70.0693 25.9229C70.182 25.4243 70.0917 24.9118 69.8158 24.4813ZM67.412 20.9403C67.8134 20.9611 68.1209 21.3004 68.0998 21.6951C68.0775 22.091 67.7324 22.4003 67.3322 22.3726C62.5468 22.1176 58.9528 23.9377 58.9176 23.9562C58.8096 24.0127 58.6934 24.0381 58.5796 24.0381C58.3167 24.0381 58.0631 23.8985 57.934 23.6538C57.7462 23.3041 57.8835 22.8701 58.2392 22.6866C58.4 22.6035 62.2299 20.6633 67.412 20.9403ZM55.9434 12.2089C56.5408 11.1748 58.8225 10.0818 59.7099 10.0818C59.8683 10.0818 59.9998 10.1118 60.1125 10.1753C60.7005 10.503 60.8449 11.6272 60.8789 12.2678C60.9001 12.6464 60.9294 13.9414 60.4705 14.7377C60.1747 15.2502 59.731 15.8388 58.9294 15.8388C58.4692 15.8388 57.9375 15.6461 57.204 15.2133C56.1241 14.5727 55.0466 13.7613 55.9434 12.2089ZM55.2156 19.5737C55.8941 19.5737 56.4457 20.1151 56.4457 20.7833C56.4457 21.4516 55.8941 21.9941 55.2156 21.9941C54.5349 21.9941 53.9844 21.4516 53.9844 20.7833C53.9844 20.1151 54.5349 19.5737 55.2156 19.5737ZM31.9579 22.3034C31.9356 21.9087 32.2443 21.5705 32.6457 21.5486C37.8255 21.2692 41.6577 23.2129 41.8185 23.2948C42.1742 23.4795 42.3115 23.9123 42.1249 24.262C41.9946 24.5079 41.7411 24.6464 41.4781 24.6464C41.3643 24.6464 41.2493 24.621 41.1413 24.5656C41.0896 24.5379 37.4733 22.7235 32.7255 22.9809C32.3206 23.0051 31.979 22.6993 31.9579 22.3034ZM32.0459 26.8105C31.992 26.8232 31.938 26.8278 31.8851 26.8278C31.5518 26.8278 31.2502 26.6016 31.1739 26.2691C31.0858 25.8825 31.3335 25.4993 31.7255 25.4116C37.2304 24.1939 41.4488 24.8691 41.6272 24.898C42.0228 24.9638 42.2915 25.3331 42.2235 25.7232C42.1577 26.1133 41.7798 26.3742 41.3842 26.3119C41.3432 26.3049 37.2538 25.6574 32.0459 26.8105ZM41.6507 28.0097C41.6061 28.0166 37.0567 28.6329 33.7491 30.8328C33.6235 30.9159 33.4814 30.9563 33.3406 30.9563C33.107 30.9563 32.877 30.8455 32.7361 30.6412C32.5108 30.3122 32.5976 29.8667 32.931 29.6451C36.5308 27.2514 41.261 26.6142 41.4594 26.5889C41.8584 26.5358 42.2246 26.8128 42.2775 27.2052C42.3315 27.5976 42.0498 27.9577 41.6507 28.0097ZM40.7117 15.8388C39.91 15.8388 39.4664 15.2502 39.1706 14.7377C38.5144 13.602 38.6177 10.6843 39.5286 10.1753C39.6401 10.1118 39.7715 10.0818 39.93 10.0818C40.8185 10.0818 43.1003 11.1748 43.6977 12.2089C44.5944 13.7613 43.5169 14.5727 42.4371 15.2133C41.7047 15.6461 41.1718 15.8388 40.7117 15.8388ZM43.1554 20.7833C43.1554 20.1151 43.7059 19.5737 44.3855 19.5737C45.0651 19.5737 45.6156 20.1151 45.6156 20.7833C45.6156 21.4516 45.0651 21.9941 44.3855 21.9941C43.7059 21.9941 43.1554 21.4516 43.1554 20.7833ZM57.1957 28.5544C57.0162 29.2631 56.6394 29.9014 56.1053 30.3976C55.4997 30.962 54.6734 31.2552 53.8095 31.2552C53.2543 31.2552 52.6839 31.134 52.1463 30.8859C51.3728 30.5292 50.7789 29.9533 50.4021 29.2527C50.023 29.9533 49.4303 30.5292 48.6556 30.8859C48.1192 31.134 47.5487 31.2552 46.9936 31.2552C46.1297 31.2552 45.3034 30.962 44.6965 30.3976C44.1637 29.9014 43.7857 29.2631 43.6061 28.5544C43.5087 28.1701 43.747 27.7811 44.1378 27.6853C44.5311 27.5895 44.9243 27.8238 45.0217 28.207C45.132 28.6444 45.3738 29.0519 45.7001 29.3566C46.2623 29.8806 47.2025 29.9741 48.037 29.5886C48.4807 29.3831 49.5019 28.7414 49.3997 27.211C49.3986 27.181 49.4021 27.1521 49.4033 27.1221C48.4537 26.6443 48.0312 26.111 48.1544 25.5339C48.3222 24.7526 49.4737 24.3959 50.4714 24.3959C51.1439 24.3959 51.746 24.5506 52.1674 24.831C52.6264 25.1369 52.6757 25.5178 52.6639 25.7174C52.6252 26.3742 51.8634 26.9166 51.401 27.1867C51.401 27.1948 51.4033 27.2029 51.4033 27.211C51.3 28.7414 52.3224 29.3831 52.766 29.5886C53.6006 29.9741 54.5407 29.8806 55.103 29.3566C55.4293 29.0519 55.671 28.6444 55.7814 28.2082C55.8776 27.8238 56.2732 27.5895 56.6652 27.6853C57.0549 27.7811 57.2932 28.1701 57.1957 28.5544ZM67.1256 29.0369C67.4601 29.2585 67.547 29.704 67.3216 30.0318C67.1808 30.2372 66.9507 30.3469 66.716 30.3469C66.5763 30.3469 66.4343 30.3076 66.3087 30.2245C62.9999 28.0235 58.4516 27.4072 58.4059 27.4014C58.0068 27.3495 57.7274 26.9894 57.7791 26.5969C57.8331 26.2045 58.1993 25.931 58.5984 25.9806C58.7967 26.006 63.5257 26.6431 67.1256 29.0369ZM68.8827 25.6597C68.8064 25.9933 68.5047 26.2195 68.1726 26.2195C68.1198 26.2195 68.0646 26.2137 68.0118 26.2022C62.8015 25.0492 58.7146 25.6967 58.6735 25.7024C58.2768 25.7648 57.9 25.5051 57.8343 25.115C57.7673 24.7249 58.035 24.3555 58.4305 24.2886C58.6089 24.2597 62.8274 23.5857 68.3322 24.8033C68.7254 24.8899 68.9719 25.2742 68.8827 25.6597Z" fill="#FFFFFE"/>
<path fill-rule="evenodd" clip-rule="evenodd" d="M55.7896 42.5015C55.1769 42.5084 54.6734 42.026 54.6663 41.4223C54.6605 40.821 55.1523 40.3259 55.7638 40.3189C58.2087 40.2878 60.2662 40.9341 61.974 42.0837C63.8274 43.3314 65.2452 45.1596 66.2864 47.3468C66.5457 47.8927 66.3051 48.5413 65.7511 48.7976C65.1948 49.0526 64.5351 48.8172 64.2757 48.2712C63.399 46.428 62.2276 44.9033 60.7217 43.8888C59.3777 42.9851 57.7451 42.4773 55.7896 42.5015Z" fill="#E67E78"/>
<path d="M13.7323 53.4794C13.8923 53.9512 13.9837 54.4455 13.9837 54.9398C13.9837 58.7594 9.36814 62.4892 3.45022 63.7474C3.42737 63.9945 3.42737 64.1968 3.42737 64.354C3.42737 65.2303 3.9986 65.1629 3.9986 65.8819C3.9986 66.511 3.49592 67.0053 2.85614 67.0053C1.80508 67.0053 1.14246 66.2189 1.14246 64.1069C0.571228 64.0395 0.114246 63.5901 0.114246 63.0059C0.114246 62.1971 0.639776 62.0623 1.32525 61.8376C1.46234 60.4446 1.73653 58.4673 1.73653 57.9281C1.59944 57.7484 1.50804 57.5461 1.50804 57.299C1.50804 56.7148 1.96503 56.1531 2.62765 56.1531C3.61016 56.1531 3.9986 56.962 3.9986 58.0404C3.9986 58.7594 3.8615 59.7256 3.74726 60.7816L3.67871 61.3882C7.70016 60.3547 11.6988 57.7034 11.6988 54.9623C11.6988 53.5018 10.1679 52.4234 8.08859 52.4234C6.23781 52.4234 3.77011 53.2322 2.07927 55.6363C1.85078 55.9509 1.48519 56.1082 1.14246 56.1082C0.456983 56.1082 0 55.5465 0 55.0072C0 54.7825 0.0685473 54.5579 0.205642 54.3556C1.98787 51.7493 5.02681 50.199 8.08859 50.199C10.8076 50.199 12.9783 51.5246 13.7323 53.4794ZM22.102 62.4667C22.5132 62.6689 22.7417 63.0733 22.7417 63.4778C22.7417 63.635 22.696 63.8148 22.6275 63.9721C21.6907 65.8369 19.7257 67.0727 17.4864 67.0727C14.4704 67.0727 12.3911 64.8708 12.1854 61.9499L12.0483 61.8825C11.6142 61.7028 11.3857 61.2983 11.3857 60.8714C11.3857 60.3097 11.7742 59.8379 12.2997 59.748C12.9166 56.6923 15.1787 54.8275 17.8063 54.8275C20.0227 54.8275 21.5993 56.0408 21.5993 57.9955C21.5993 60.7366 18.7888 62.7363 15.7728 62.7363C15.4072 62.7363 14.9959 62.6914 14.6074 62.6464C14.9959 63.9945 16.0241 64.8259 17.4864 64.8259C18.6289 64.8259 19.9541 64.2642 20.5711 63.0059C20.7767 62.6015 21.188 62.3544 21.6221 62.3544C21.7821 62.3544 21.942 62.3993 22.102 62.4667ZM17.8063 57.0743C16.1155 57.0743 14.8359 58.3999 14.5161 60.3322C14.9273 60.4221 15.3386 60.467 15.7499 60.467C18.6517 60.467 19.3144 58.6471 19.3144 57.973C19.3144 57.1642 18.3319 57.0743 17.8063 57.0743ZM28.0427 56.58C27.9742 57.3439 27.9285 58.1753 27.9285 58.9392C27.9285 62.3993 28.6368 64.7585 29.8021 64.7585C30.0306 64.7585 30.8075 64.7585 31.4473 63.3205C31.8357 62.4218 32.087 61.1186 32.087 59.8828C32.087 59.2762 32.5897 58.7594 33.2295 58.7594C33.8464 58.7594 34.3719 59.2762 34.3719 59.8828C34.3719 60.6018 34.3034 62.5341 33.5494 64.2192C32.7268 66.0616 31.4016 67.0053 29.8021 67.0053C27.1059 67.0053 25.6436 64.2192 25.6436 58.9392C25.6436 58.6471 25.6436 58.355 25.6664 58.0404L25.7121 57.0968L24.8439 57.2765C24.7525 57.299 24.6611 57.299 24.5925 57.299C23.9984 57.299 23.4501 56.8496 23.4501 56.1756C23.4501 55.6588 23.8156 55.2094 24.3412 55.0971L25.9178 54.7376C26.2148 52.1762 26.3976 50.2215 27.7 50.2215C28.3626 50.2215 28.8425 50.7832 28.8425 51.3449C28.8425 51.7718 28.454 52.9177 28.2941 54.2208L32.9781 53.1873C33.0695 53.1648 33.1381 53.1648 33.2295 53.1648C33.8236 53.1648 34.3719 53.6367 34.3719 54.2882C34.3719 54.805 34.0064 55.2544 33.4808 55.3667L28.0427 56.58ZM44.6541 61.4556C45.0425 62.0173 45.2024 62.6015 45.2024 63.2531C45.2024 65.5224 42.9632 67.0952 40.0157 67.0952C37.4337 67.0952 34.966 65.7021 34.966 63.5227C34.966 62.9161 35.4459 62.3993 36.1085 62.3993C36.6797 62.3993 37.1824 62.8262 37.2509 63.3879C37.3423 64.354 38.6904 64.8708 40.0385 64.8708C41.8436 64.8708 42.9175 63.9945 42.9175 63.2756C42.9175 62.3993 41.3409 61.5904 40.0157 60.9613C38.8047 60.3771 36.7711 59.748 36.7711 57.7708C36.7711 56.1756 38.4162 55.0522 40.3127 55.0522C41.3638 55.0522 43.8086 55.906 43.8086 57.3889C43.8086 57.973 43.306 58.5123 42.6433 58.5123C42.2777 58.5123 41.8893 58.3325 41.6837 57.9955C41.3638 57.5012 40.8154 57.3215 40.2899 57.3215C39.97 57.3215 39.6729 57.3889 39.4445 57.4787C39.0332 57.6585 39.056 57.8158 39.056 57.7933C39.4216 58.5123 43.4202 59.748 44.6541 61.4556ZM62.9334 59.4559C64.2129 60.2199 64.8527 61.186 64.8527 62.3544C64.8527 64.9831 62.0651 66.9604 58.4092 66.9604C54.4335 66.9604 51.6002 64.6237 51.6002 61.2983C51.6002 60.6692 52.1029 60.1749 52.7426 60.1749C53.3596 60.1749 53.8851 60.6692 53.8851 61.2983C53.8851 63.4328 55.8273 64.7135 58.4092 64.7135C60.4656 64.7135 62.5678 63.8148 62.5678 62.3544C62.5678 62.2195 62.5678 61.8601 61.7452 61.3658C61.014 60.9389 59.9858 60.5569 58.8891 60.1749C55.6673 59.0515 52.994 57.7933 52.994 55.0746C52.994 52.2436 55.4845 50.1091 58.5692 50.1091C60.7627 50.1091 62.8648 51.9291 62.8648 54.0186C62.8648 54.6702 62.3393 56.6923 61.0826 56.6923C60.4428 56.6923 59.9401 56.1756 59.9401 55.5689C59.9401 54.9398 60.6027 54.5129 60.6027 53.9961C60.6027 53.1199 59.4831 52.356 58.5692 52.356C56.9469 52.356 55.2789 53.2996 55.2789 55.0746C55.2789 57.2765 60.42 57.9281 62.9334 59.4559ZM75.8888 63.6126L75.706 65.4775C75.6832 65.6572 75.6832 65.792 75.6832 65.9043C75.6832 66.3088 76.0945 66.5335 76.0945 67.0278C76.0945 67.6569 75.5918 68.1512 74.952 68.1512C73.8552 68.1512 73.3983 67.0952 73.3983 66.0841C73.3983 64.6012 73.9009 61.9724 73.9009 59.8604C73.9009 57.0518 73.284 57.3215 73.1012 57.3215C70.8163 57.3215 68.0516 65.9718 68.0516 66.1515C67.9145 66.6683 67.4575 67.0053 66.932 67.0053C66.2922 67.0053 65.8123 66.4661 65.8123 65.8594C65.8123 65.8145 66.2693 59.5009 66.2693 56.0857C66.2693 53.5018 66.1094 52.5582 66.018 52.2212C65.6981 52.0189 65.5153 51.6819 65.5153 51.3C65.5153 50.6708 66.018 50.1765 66.6578 50.1765C67.0233 50.1765 67.4346 50.3338 67.7088 50.6259C68.2115 51.1651 68.5542 52.2436 68.5542 56.0183C68.5542 56.8721 68.5542 57.8158 68.5085 58.8718C69.948 56.3553 71.4104 55.0746 73.1012 55.0746C74.952 55.0746 76.1859 56.5351 76.1859 59.6132C76.1859 60.8939 76.0488 62.3319 75.8888 63.6126ZM86.7878 58.4449C87.1534 59.1414 87.5419 60.1075 87.5419 60.9613C87.5419 61.4332 87.2448 61.8601 86.8107 62.0173C86.8335 62.242 86.8335 62.4442 86.8335 62.6689C86.8335 65.1629 85.0742 67.0053 82.6522 67.0053H82.5608C79.1105 67.0053 76.7114 63.9496 76.7114 60.3996V60.3547C76.8485 57.2765 78.745 55.2993 81.3498 55.2094C83.4976 55.2094 85.6682 56.3104 86.7878 58.4449ZM84.5029 62.0173C84.5029 61.9724 84.4801 61.9275 84.4801 61.8825C84.4801 61.4107 84.7771 60.9838 85.2113 60.804C84.8457 58.692 83.1091 57.4563 81.5325 57.4563C79.9788 57.4563 79.0648 58.5797 78.9963 60.4221C79.0191 63.0509 80.5043 64.0844 81.1441 64.4214C81.6011 64.6686 82.1038 64.7809 82.5608 64.7809C84.046 64.7809 84.5486 63.6575 84.5486 62.6689C84.5486 62.4442 84.5258 62.2195 84.5029 62.0173ZM99.1264 55.6363C100.269 56.4003 101 58.0629 101 59.8154C101 64.017 98.8522 66.9379 95.699 66.9379C94.6479 66.9379 93.4826 66.5784 92.523 65.9043C92.0203 68.0613 91.6547 70.2632 91.4034 72.0157C91.312 72.5774 90.8321 72.9819 90.2609 72.9819H90.1467C89.5297 72.9145 89.1185 72.3977 89.1185 71.791C89.1185 71.7686 89.3241 67.4322 89.3241 63.298C89.3241 53.3895 88.273 56.7822 88.273 55.142C88.273 54.5129 88.7757 54.0186 89.4155 54.0186C89.8039 54.0186 90.1467 54.1759 90.4437 54.468C90.9921 55.0297 91.3577 55.9958 91.5862 60.9389L91.6776 60.6917C93.1399 56.9844 95.0364 55.142 97.5041 55.142C98.0753 55.142 98.6237 55.3218 99.1264 55.6363ZM98.0068 63.1632C98.4638 62.3094 98.7151 61.1411 98.7151 59.8154C98.7151 58.737 98.2124 57.3889 97.5041 57.3889C95.7676 57.3889 94.2367 59.5908 93.1171 63.5452C93.9625 64.2642 94.8993 64.6911 95.7218 64.6911C96.6587 64.6911 97.4584 64.1743 98.0068 63.1632Z" fill="#E67E78"/>
</svg>
