<svg width="113" height="60" viewBox="0 0 113 60" fill="none" xmlns="http://www.w3.org/2000/svg">
<mask id="mask0" mask-type="alpha" maskUnits="userSpaceOnUse" x="0" y="0" width="65" height="35">
<path d="M0.0123291 1.52588e-05H64.8699V34.9097H0.0123291V1.52588e-05Z" fill="white"/>
</mask>
<g mask="url(#mask0)">
<path fill-rule="evenodd" clip-rule="evenodd" d="M22.2285 8.46536L22.2529 21.9228L17.4107 28.6203L17.4707 5.07877H23.4302V1.63605H12.0548V5.07877H13.366V16.7824L-0.000976562 34.9097H40.4557L64.868 1.52588e-05L22.2285 8.46536Z" fill="#BE3133"/>
</g>
<path fill-rule="evenodd" clip-rule="evenodd" d="M73.0705 11.5615L78.8959 22.7575H69.1135L62.6375 32.6081H80.2019L94.3306 6.82707L73.0705 11.5615Z" fill="#BE3133"/>
<path fill-rule="evenodd" clip-rule="evenodd" d="M98.5248 14.4175L102.31 21.693H95.9538L91.7455 28.0944H103.159L112.34 11.3408L98.5248 14.4175Z" fill="#BE3133"/>
<path fill-rule="evenodd" clip-rule="evenodd" d="M57.981 17.7245C59.2131 17.7516 60.4452 17.7784 61.6775 17.8053C61.6775 16.4635 61.6775 15.1216 61.6775 13.7798C60.4452 13.5549 59.2131 13.3298 57.981 13.105C57.981 14.6449 57.981 16.1847 57.981 17.7245Z" fill="#1A1919"/>
<path fill-rule="evenodd" clip-rule="evenodd" d="M62.6375 17.8262C63.6967 17.8533 64.7555 17.8799 65.8147 17.9067C65.8147 16.8146 65.8147 15.7222 65.8147 14.6298C64.7555 14.4048 63.6967 14.1797 62.6375 13.9549C62.6375 15.2452 62.6375 16.5357 62.6375 17.8262Z" fill="#1A1919"/>
<path fill-rule="evenodd" clip-rule="evenodd" d="M57.981 23.5983C59.2131 23.3736 60.4452 23.1484 61.6775 22.9233C61.6775 21.5817 61.6775 20.2398 61.6775 18.8979C60.4452 18.9249 59.2131 18.9518 57.981 18.9788C57.981 20.5186 57.981 22.0585 57.981 23.5983Z" fill="#1A1919"/>
<path fill-rule="evenodd" clip-rule="evenodd" d="M65.8147 18.7966C64.7555 18.8234 63.6967 18.8501 62.6375 18.8771C62.6375 20.1674 62.6375 21.4579 62.6375 22.7484C63.6967 22.5236 64.7555 22.2987 65.8147 22.0737C65.8147 20.9815 65.8147 19.8888 65.8147 18.7966Z" fill="#1A1919"/>
<path fill-rule="evenodd" clip-rule="evenodd" d="M90.4097 18.9619C91.1662 18.9786 91.9228 18.9949 92.6795 19.0113C92.6795 18.1876 92.6795 17.3637 92.6795 16.54C91.9228 16.4019 91.1662 16.2634 90.4097 16.1257C90.4097 17.071 90.4097 18.0168 90.4097 18.9619Z" fill="#1A1919"/>
<path fill-rule="evenodd" clip-rule="evenodd" d="M93.2688 19.0244C93.9194 19.0411 94.5694 19.0573 95.2201 19.0738C95.2201 18.4028 95.2201 17.7327 95.2201 17.0617C94.5694 16.9234 93.9194 16.7855 93.2688 16.6474C93.2688 17.4398 93.2688 18.232 93.2688 19.0244Z" fill="#1A1919"/>
<path fill-rule="evenodd" clip-rule="evenodd" d="M90.4097 22.5684C91.1662 22.4303 91.9228 22.2922 92.6795 22.1539C92.6795 21.3302 92.6795 20.5062 92.6795 19.6825C91.9228 19.6992 91.1662 19.7153 90.4097 19.7321C90.4097 20.6775 90.4097 21.623 90.4097 22.5684Z" fill="#1A1919"/>
<path fill-rule="evenodd" clip-rule="evenodd" d="M95.2201 19.6201C94.5694 19.6366 93.9194 19.6528 93.2688 19.6695C93.2688 20.4621 93.2688 21.2541 93.2688 22.0465C93.9194 21.9086 94.5694 21.7705 95.2201 21.6324C95.2201 20.9616 95.2201 20.2911 95.2201 19.6201Z" fill="#1A1919"/>
<path d="M1.66084 41.835H5.43752C6.09808 41.835 6.7012 41.9403 7.24688 42.1509C7.79256 42.3616 8.25687 42.6775 8.6398 43.0987C9.02273 43.5104 9.31951 44.0321 9.53012 44.6639C9.74073 45.2862 9.84604 46.0138 9.84604 46.8467C9.84604 47.6795 9.74073 48.4119 9.53012 49.0437C9.31951 49.666 9.02273 50.1878 8.6398 50.609C8.25687 51.0206 7.79256 51.3318 7.24688 51.5424C6.7012 51.753 6.09808 51.8583 5.43752 51.8583H1.66084V41.835ZM5.43752 49.9197C6.08851 49.9197 6.60068 49.7378 6.97404 49.374C7.3474 49.0102 7.53408 48.4263 7.53408 47.6221V46.0712C7.53408 45.2671 7.3474 44.6831 6.97404 44.3193C6.60068 43.9555 6.08851 43.7736 5.43752 43.7736H3.84356V49.9197H5.43752ZM15.2923 51.8583H13.1096V41.835H17.8627C18.3223 41.835 18.7387 41.9116 19.1121 42.0648C19.4854 42.218 19.8013 42.4381 20.0598 42.7253C20.3279 43.003 20.5337 43.338 20.6773 43.7305C20.8209 44.1231 20.8927 44.5586 20.8927 45.0373C20.8927 45.717 20.7395 46.3106 20.4332 46.8179C20.1364 47.3253 19.6817 47.6939 19.069 47.9237L21.0363 51.8583H18.6095L16.8575 48.1821H15.2923V51.8583ZM17.5899 46.3441C17.9154 46.3441 18.1691 46.2627 18.351 46.0999C18.5424 45.9276 18.6382 45.6787 18.6382 45.3532V44.7214C18.6382 44.3959 18.5424 44.1518 18.351 43.989C18.1691 43.8167 17.9154 43.7305 17.5899 43.7305H15.2923V46.3441H17.5899ZM24.2217 51.8583V41.835H31.0427V43.7736H26.4045V45.8271H30.3822V47.7513H26.4045V49.9197H31.0427V51.8583H24.2217ZM40.5551 51.8583L39.8371 49.4745H36.4912L35.7732 51.8583H33.5618L36.8646 41.835H39.5643L42.824 51.8583H40.5551ZM38.1857 43.8167H38.1139L37.0082 47.6221H39.3058L38.1857 43.8167ZM53.1427 45.2814H53.0996L52.3672 46.7461L50.4143 50.2931L48.5044 46.7605L47.7433 45.1809H47.7002V51.8583H45.6468V41.835H47.9587L50.4143 46.5307H50.443L52.8698 41.835H55.1962V51.8583H53.1427V45.2814ZM64.8509 47.7513H61.0311V51.8583H58.8484V41.835H61.0311V45.8271H64.8509V41.835H67.0336V51.8583H64.8509V47.7513ZM74.6966 52.0306C74.036 52.0306 73.4329 51.9205 72.8872 51.7003C72.3415 51.4802 71.8772 51.1547 71.4943 50.7239C71.1114 50.2835 70.8146 49.7426 70.604 49.1012C70.3934 48.4502 70.2881 47.6987 70.2881 46.8467C70.2881 45.9946 70.3934 45.2479 70.604 44.6065C70.8146 43.9555 71.1114 43.4146 71.4943 42.9838C71.8772 42.5435 72.3415 42.2132 72.8872 41.993C73.4329 41.7728 74.036 41.6627 74.6966 41.6627C75.3571 41.6627 75.9603 41.7728 76.5059 41.993C77.0516 42.2132 77.5159 42.5435 77.8989 42.9838C78.2818 43.4146 78.5786 43.9555 78.7892 44.6065C78.9998 45.2479 79.1051 45.9946 79.1051 46.8467C79.1051 47.6987 78.9998 48.4502 78.7892 49.1012C78.5786 49.7426 78.2818 50.2835 77.8989 50.7239C77.5159 51.1547 77.0516 51.4802 76.5059 51.7003C75.9603 51.9205 75.3571 52.0306 74.6966 52.0306ZM74.6966 50.092C75.3571 50.092 75.8693 49.8766 76.2331 49.4458C76.6065 49.015 76.7931 48.3975 76.7931 47.5934V46.0999C76.7931 45.2958 76.6065 44.6783 76.2331 44.2475C75.8693 43.8167 75.3571 43.6013 74.6966 43.6013C74.036 43.6013 73.5191 43.8167 73.1457 44.2475C72.7819 44.6783 72.6 45.2958 72.6 46.0999V47.5934C72.6 48.3975 72.7819 49.015 73.1457 49.4458C73.5191 49.8766 74.036 50.092 74.6966 50.092ZM84.4308 41.835V47.9811C84.4308 48.6895 84.5696 49.2209 84.8472 49.5751C85.1248 49.9197 85.5891 50.092 86.2401 50.092C86.8911 50.092 87.3554 49.9197 87.633 49.5751C87.9107 49.2209 88.0495 48.6895 88.0495 47.9811V41.835H90.1748V47.7513C90.1748 48.4885 90.103 49.1299 89.9594 49.6756C89.8253 50.2117 89.6004 50.6569 89.2844 51.0111C88.9685 51.3557 88.5617 51.6142 88.0638 51.7865C87.566 51.9493 86.9581 52.0306 86.2401 52.0306C85.5221 52.0306 84.9142 51.9493 84.4164 51.7865C83.9186 51.6142 83.5117 51.3557 83.1958 51.0111C82.8799 50.6569 82.6501 50.2117 82.5065 49.6756C82.3725 49.1299 82.3055 48.4885 82.3055 47.7513V41.835H84.4308ZM97.0149 52.0306C96.1342 52.0306 95.3875 51.8822 94.7748 51.5855C94.1621 51.2791 93.6403 50.8866 93.2095 50.4079L94.6455 48.9576C95.3253 49.7235 96.1629 50.1064 97.1585 50.1064C97.6947 50.1064 98.0919 49.9963 98.3504 49.7761C98.6089 49.5559 98.7381 49.2639 98.7381 48.9001C98.7381 48.6225 98.6616 48.3928 98.5084 48.2109C98.3552 48.0194 98.0441 47.8902 97.575 47.8231L96.5841 47.6939C95.5215 47.5599 94.7413 47.2392 94.2435 46.7318C93.7552 46.2244 93.5111 45.5495 93.5111 44.707C93.5111 44.2571 93.5973 43.8454 93.7696 43.4721C93.9419 43.0987 94.186 42.778 94.5019 42.5099C94.8274 42.2419 95.2199 42.0361 95.6795 41.8925C96.1486 41.7393 96.6799 41.6627 97.2734 41.6627C98.0297 41.6627 98.6951 41.7824 99.2695 42.0217C99.8439 42.261 100.337 42.6105 100.749 43.07L99.2982 44.5347C99.0589 44.2571 98.7669 44.0321 98.4222 43.8598C98.0872 43.6779 97.6611 43.5869 97.1442 43.5869C96.6559 43.5869 96.2922 43.6731 96.0528 43.8454C95.8135 44.0177 95.6938 44.2571 95.6938 44.5634C95.6938 44.9081 95.7848 45.157 95.9667 45.3101C96.1581 45.4633 96.4645 45.5734 96.8857 45.6404L97.8765 45.7984C98.9105 45.9611 99.6763 46.2818 100.174 46.7605C100.672 47.2296 100.921 47.8997 100.921 48.7709C100.921 49.2496 100.835 49.6899 100.662 50.092C100.49 50.4941 100.236 50.8387 99.9013 51.1259C99.5758 51.4131 99.1689 51.6381 98.6807 51.8009C98.1925 51.954 97.6372 52.0306 97.0149 52.0306ZM104.167 51.8583V41.835H110.988V43.7736H106.349V45.8271H110.327V47.7513H106.349V49.9197H110.988V51.8583H104.167Z" fill="#1A1919"/>
</svg>
