<svg width="96" height="96" viewBox="0 0 96 96" fill="none" xmlns="http://www.w3.org/2000/svg">
<path fill-rule="evenodd" clip-rule="evenodd" d="M88.3627 48.9401C88.3145 48.9401 88.2657 48.9401 88.217 48.9299C87.6838 48.8485 87.3139 48.3296 87.3933 47.7699C87.4738 47.2153 87.9709 46.8236 88.5006 46.9151H88.5065C89.0392 46.9966 89.4067 47.5155 89.3272 48.0752C89.2546 48.5789 88.8379 48.9401 88.3627 48.9401ZM85.3352 47.4138C85.2626 47.9175 84.8459 48.2838 84.3707 48.2838C84.3224 48.2838 84.2737 48.2787 84.2249 48.2685C83.6922 48.1871 83.3218 47.6682 83.4018 47.1085C83.4812 46.5539 83.9803 46.1672 84.5091 46.2537H84.5144C85.0476 46.3402 85.4146 46.8592 85.3352 47.4138ZM81.3431 46.7523C81.2705 47.256 80.8538 47.6224 80.3791 47.6224C80.3308 47.6224 80.2821 47.6173 80.2334 47.6071C79.7002 47.5257 79.3303 47.0067 79.4097 46.4522C79.4892 45.8925 79.9868 45.5058 80.517 45.5923H80.5224C81.0556 45.6788 81.423 46.1978 81.3431 46.7523ZM77.3511 46.0909C77.2789 46.5946 76.8622 46.9609 76.387 46.9609C76.3388 46.9609 76.2901 46.9559 76.2413 46.9508C75.7081 46.8643 75.3382 46.3453 75.4177 45.7907C75.4976 45.2311 75.9957 44.8444 76.525 44.9309H76.5303C77.0635 45.0174 77.431 45.5363 77.3511 46.0909ZM73.3595 45.4295C73.2869 45.9383 72.8702 46.2995 72.395 46.2995C72.3467 46.2995 72.298 46.2944 72.2493 46.2893C71.7161 46.2029 71.3462 45.6839 71.4261 45.1293C71.5055 44.5696 72.0022 44.183 72.5334 44.2695L72.5388 44.2745C73.072 44.356 73.4389 44.8749 73.3595 45.4295ZM87.2783 36.4036C87.2783 36.4087 87.2788 36.4138 87.2788 36.4138C87.2788 38.5405 85.6281 40.2653 83.5919 40.2653C81.5561 40.2653 79.9054 38.5405 79.9054 36.4138C79.9054 36.4087 79.9063 36.3985 79.9063 36.3935L71.1956 36.3833C70.0527 49.571 59.969 60.3878 46.8958 61.5122C55.7274 66.0862 66.3677 66.6967 76.099 62.2296C86.7573 57.3351 93.8534 47.485 95.9998 36.4138L87.2783 36.4036Z" fill="url(#paint0_linear)"/>
<path fill-rule="evenodd" clip-rule="evenodd" d="M57.0598 11.4579C57.0447 11.5036 57.0262 11.5494 57.0037 11.5952C56.763 12.0989 56.1757 12.3075 55.6937 12.0582C55.2112 11.8038 55.0109 11.1933 55.2551 10.6947L55.2575 10.6896C55.4983 10.1859 56.0841 9.98238 56.5671 10.2317C57.0047 10.4606 57.2065 10.9847 57.0598 11.4579ZM54.7316 13.9916C55.1693 14.2206 55.3711 14.7446 55.2244 15.2178C55.2092 15.2636 55.1907 15.3094 55.1683 15.3552C54.928 15.8589 54.3403 16.0675 53.8583 15.8182C53.3753 15.5638 53.1754 14.9481 53.4196 14.4546L53.4221 14.4495C53.6628 13.9458 54.2486 13.7372 54.7316 13.9916ZM52.8957 17.7515C53.3334 17.9754 53.5351 18.5045 53.3884 18.9726C53.3733 19.0235 53.3548 19.0693 53.3329 19.1151C53.0921 19.6188 52.5048 19.8274 52.0223 19.573C51.5398 19.3237 51.342 18.7131 51.5842 18.2094L51.5866 18.2044C51.8274 17.7007 52.4132 17.4971 52.8957 17.7515ZM51.0603 21.5064C51.4979 21.7353 51.6997 22.2645 51.553 22.7326C51.5379 22.7834 51.5198 22.8292 51.4974 22.875C51.2567 23.3787 50.6694 23.5873 50.1869 23.3329C49.7039 23.0836 49.5065 22.468 49.7487 21.9694L49.7512 21.9643C49.9919 21.4606 50.5778 21.2571 51.0603 21.5064ZM49.2248 25.2663C49.6625 25.4953 49.8642 26.0193 49.7175 26.4925C49.7024 26.5434 49.6844 26.5892 49.662 26.6349C49.4212 27.1386 48.8339 27.3472 48.3514 27.0928C47.8689 26.8435 47.6701 26.2279 47.9133 25.7293L47.9157 25.7242C48.1565 25.2205 48.7423 25.017 49.2248 25.2663ZM45.3005 8.65954C45.3049 8.65954 45.3088 8.65954 45.3132 8.65954C47.2495 9.32096 48.3095 11.4884 47.6803 13.5134C47.0511 15.5332 44.971 16.6373 43.0347 15.981C43.0274 15.981 43.0211 15.9759 43.0142 15.9759L40.3127 24.6201C51.9746 29.8301 58.713 43.1857 55.6956 56.5108C62.5944 49.1589 66.4368 38.7797 65.3729 27.739C64.2081 15.6452 57.4292 5.55594 48.0054 0L45.3005 8.65954Z" fill="url(#paint1_linear)"/>
<path fill-rule="evenodd" clip-rule="evenodd" d="M13.2331 30.9596C13.2721 30.9901 13.3091 31.0207 13.3442 31.0614C13.7288 31.4531 13.7356 32.0993 13.3579 32.5012C12.9797 32.9032 12.3583 32.9134 11.9796 32.5165L11.9757 32.5114C11.5916 32.1197 11.5863 31.4735 11.964 31.0716C12.3071 30.7052 12.8486 30.6696 13.2331 30.9596ZM14.8219 34.053C15.1646 33.6918 15.706 33.6511 16.0906 33.9462C16.1295 33.9716 16.1671 34.0072 16.2017 34.0429C16.5862 34.4397 16.593 35.0859 16.2153 35.4878C15.8376 35.8898 15.2148 35.8948 14.837 35.498H14.8331C14.4491 35.1011 14.4437 34.455 14.8219 34.053ZM17.6789 37.0396C18.022 36.6733 18.5635 36.6377 18.948 36.9277C18.987 36.9582 19.024 36.9887 19.0591 37.0294C19.4437 37.4212 19.4505 38.0674 19.0728 38.4693C18.6951 38.8712 18.0751 38.8814 17.6945 38.4846L17.6906 38.4795C17.3065 38.0877 17.3012 37.4416 17.6789 37.0396ZM20.5368 40.0211C20.8795 39.6599 21.4209 39.6192 21.8055 39.9143C21.8445 39.9448 21.882 39.9753 21.9166 40.0109C22.3011 40.4078 22.308 41.0539 21.9302 41.4559C21.552 41.8578 20.9316 41.8629 20.552 41.466H20.5481C20.164 41.0692 20.1586 40.423 20.5368 40.0211ZM23.3943 43.0077C23.7374 42.6413 24.2784 42.6057 24.6629 42.8957C24.7019 42.9263 24.7394 42.9568 24.7745 42.9975C25.1586 43.3893 25.1654 44.0354 24.7877 44.4374C24.41 44.8393 23.7905 44.8495 23.4094 44.4526L23.4055 44.4475C23.0215 44.0558 23.0161 43.4096 23.3943 43.0077ZM7.04982 41.7713C7.05226 41.7662 7.05421 41.7611 7.05713 41.7611C8.25412 40.0414 10.5594 39.6599 12.2067 40.9064C13.854 42.158 14.2191 44.5646 13.0226 46.2843C13.0182 46.2893 13.0133 46.2944 13.0089 46.2995L20.05 51.657C28.4001 41.6848 42.6484 39.1256 53.8569 46.2385C49.2893 37.1159 41.0235 30.0947 30.6347 27.739C19.2565 25.1544 7.97095 28.7718 0 36.4087L7.04982 41.7713Z" fill="url(#paint2_linear)"/>
<path fill-rule="evenodd" clip-rule="evenodd" d="M17.4563 80.5052C17.4953 80.4747 17.5373 80.4442 17.5811 80.4238C18.0592 80.1643 18.6509 80.3577 18.8999 80.8563C19.1485 81.3549 18.9648 81.9756 18.4862 82.23H18.4813C18.0032 82.4895 17.4139 82.2961 17.1649 81.7975C16.9392 81.3447 17.0723 80.7952 17.4563 80.5052ZM20.7666 79.8794C20.5409 79.4266 20.6735 78.8771 21.058 78.5871C21.097 78.5566 21.1384 78.5311 21.1823 78.5057C21.6609 78.2462 22.2521 78.4395 22.5011 78.9381C22.7502 79.4418 22.5655 80.0626 22.0878 80.3119L22.083 80.317C21.6049 80.5764 21.0156 80.3831 20.7666 79.8794ZM24.3683 77.9664C24.1426 77.5135 24.2752 76.9641 24.6597 76.674C24.6987 76.6435 24.7401 76.6181 24.784 76.5926C25.2626 76.3332 25.8542 76.5265 26.1028 77.0251C26.3519 77.5237 26.1671 78.1444 25.6895 78.3988H25.6846C25.2065 78.6583 24.6173 78.465 24.3683 77.9664ZM27.9699 76.0533C27.7443 75.6005 27.8768 75.051 28.2614 74.7559C28.3004 74.7305 28.3418 74.7 28.3857 74.6796C28.8638 74.4201 29.4554 74.6135 29.7045 75.1121C29.9535 75.6107 29.7678 76.2263 29.2912 76.4807L29.2863 76.4858C28.8077 76.7453 28.219 76.5519 27.9699 76.0533ZM31.5711 74.1352C31.3455 73.6824 31.4785 73.1329 31.8626 72.8429C31.9016 72.8124 31.9435 72.7869 31.9873 72.7615C32.4654 72.502 33.0571 72.6953 33.3057 73.194C33.5552 73.6926 33.3705 74.3133 32.8924 74.5677L32.8875 74.5728C32.4094 74.8322 31.8202 74.6338 31.5711 74.1352ZM25.3942 89.9839C25.3917 89.9788 25.3888 89.9737 25.3859 89.9737C24.1894 88.254 24.5544 85.8424 26.2017 84.5958C27.8491 83.3442 30.1548 83.7258 31.3513 85.4455C31.3557 85.4506 31.3591 85.4608 31.3635 85.4659L38.4162 80.1287C31.9157 68.7573 33.9831 53.8194 43.9274 44.8902C34.2054 46.6048 25.2548 52.6441 19.8981 62.2296C14.0306 72.731 13.8347 85.0487 18.3326 95.3261L25.3942 89.9839Z" fill="url(#paint3_linear)"/>
<path fill-rule="evenodd" clip-rule="evenodd" d="M63.8943 91.6171C63.8792 91.5662 63.8675 91.5204 63.8597 91.4695C63.771 90.915 64.1297 90.3858 64.661 90.2942C65.1932 90.1976 65.701 90.5741 65.7839 91.1287L65.7848 91.1337C65.8735 91.6883 65.5148 92.2124 64.9826 92.3039C64.5001 92.3904 64.041 92.0903 63.8943 91.6171ZM64.351 88.137C63.8685 88.2235 63.4094 87.9182 63.2627 87.4501C63.2476 87.3993 63.2359 87.3535 63.2281 87.3026C63.1394 86.7429 63.4981 86.2189 64.0293 86.1222C64.5615 86.0306 65.0699 86.4071 65.1522 86.9617L65.1532 86.9668C65.2419 87.5214 64.8827 88.0454 64.351 88.137ZM63.7199 83.97C63.2374 84.0565 62.7778 83.7513 62.6311 83.2832C62.6159 83.2323 62.6043 83.1814 62.5965 83.1305C62.5078 82.576 62.8665 82.0519 63.3982 81.9552C63.9299 81.8637 64.4353 82.2402 64.5206 82.7896L64.5216 82.7947C64.6103 83.3544 64.2516 83.8784 63.7199 83.97ZM63.0877 79.8031C62.6052 79.8845 62.1461 79.5843 61.9994 79.1111C61.9843 79.0653 61.9726 79.0145 61.9648 78.9636C61.8761 78.409 62.2348 77.8799 62.7665 77.7883C63.2983 77.6967 63.8042 78.0732 63.889 78.6227L63.8899 78.6278C63.9786 79.1824 63.6199 79.7115 63.0877 79.8031ZM62.4561 75.6361C61.9736 75.7175 61.5145 75.4173 61.3678 74.9442C61.3527 74.8984 61.341 74.8475 61.3332 74.7966C61.2445 74.242 61.6032 73.7129 62.1349 73.6213C62.6666 73.5297 63.172 73.9012 63.2573 74.4557L63.2583 74.4608C63.347 75.0154 62.9883 75.5445 62.4561 75.6361ZM74.983 86.6666C74.9786 86.6666 74.9752 86.6666 74.9708 86.6717C73.034 87.328 70.9544 86.2189 70.3252 84.199C69.696 82.1791 70.7555 80.0066 72.6924 79.3503C72.6992 79.3452 72.706 79.3452 72.7133 79.3401L70.0308 70.6907C57.6628 73.6315 44.6924 66.9613 39.6306 54.3282C38.1894 64.5141 40.9231 75.2647 48.0012 83.5477C55.7533 92.6143 66.918 96.6185 77.6684 95.3261L74.983 86.6666Z" fill="url(#paint4_linear)"/>
<defs>
<linearGradient id="paint0_linear" x1="95.9384" y1="36.3782" x2="48.8088" y2="59.9015" gradientUnits="userSpaceOnUse">
<stop stop-color="#F5A941"/>
<stop offset="1" stop-color="#E66A3D"/>
</linearGradient>
<linearGradient id="paint1_linear" x1="49.1511" y1="-0.254393" x2="58.1623" y2="56.6146" gradientUnits="userSpaceOnUse">
<stop stop-color="#2EB9B9"/>
<stop offset="1" stop-color="#22857F"/>
</linearGradient>
<linearGradient id="paint2_linear" x1="2.85046" y1="35.615" x2="54.1451" y2="44.0383" gradientUnits="userSpaceOnUse">
<stop stop-color="#2682B5"/>
<stop offset="1" stop-color="#1E5B94"/>
</linearGradient>
<linearGradient id="paint3_linear" x1="43.79" y1="45.0276" x2="17.2483" y2="91.6392" gradientUnits="userSpaceOnUse">
<stop stop-color="#5B2D68"/>
<stop offset="1" stop-color="#894297"/>
</linearGradient>
<linearGradient id="paint4_linear" x1="39.4035" y1="54.1857" x2="76.9209" y2="93.7912" gradientUnits="userSpaceOnUse">
<stop stop-color="#8F2465"/>
<stop offset="1" stop-color="#D13193"/>
</linearGradient>
</defs>
</svg>
