<svg width="121" height="103" viewBox="0 0 121 103" fill="none" xmlns="http://www.w3.org/2000/svg">
<path d="M6.05769 93.2409C6.46838 93.2409 6.84827 93.1895 7.19735 93.0869C7.55329 92.9773 7.8613 92.8268 8.12141 92.6351C8.38151 92.4366 8.58344 92.197 8.72718 91.9164C8.87776 91.6289 8.95306 91.3072 8.95306 90.9513C8.95306 90.5269 8.85038 90.1675 8.64504 89.8732C8.44654 89.5789 8.17959 89.3222 7.84419 89.1032C7.50879 88.8773 7.12891 88.6754 6.70453 88.4974C6.28014 88.3194 5.8455 88.138 5.40058 87.9532C4.96251 87.7684 4.53129 87.5665 4.10691 87.3475C3.68253 87.1216 3.30264 86.8546 2.96724 86.5466C2.63184 86.2318 2.36147 85.8587 2.15613 85.4275C1.95763 84.9963 1.85838 84.4761 1.85838 83.8669C1.85838 83.2029 1.985 82.6074 2.23826 82.0804C2.49152 81.5533 2.84746 81.105 3.30606 80.7353C3.76466 80.3657 4.31225 80.0851 4.94882 79.8934C5.58539 79.6949 6.28699 79.5957 7.05361 79.5957C7.27949 79.5957 7.5396 79.6059 7.83392 79.6265C8.12825 79.647 8.44312 79.6812 8.77851 79.7292C9.11391 79.7702 9.463 79.8284 9.82577 79.9037C10.1954 79.9721 10.565 80.0611 10.9346 80.1706L10.5342 82.1625L10.3391 82.2652C9.97636 82.1009 9.62385 81.964 9.28161 81.8545C8.93937 81.745 8.61424 81.656 8.30622 81.5875C7.9982 81.5191 7.71072 81.4712 7.44377 81.4438C7.18366 81.4164 6.95436 81.4027 6.75586 81.4027C6.3794 81.4027 6.03715 81.4472 5.72913 81.5362C5.42112 81.6252 5.15759 81.7552 4.93856 81.9263C4.72637 82.0975 4.55867 82.3097 4.43546 82.5629C4.3191 82.8093 4.26092 83.0934 4.26092 83.4151C4.26092 83.8463 4.36359 84.2159 4.56893 84.524C4.77428 84.8251 5.04123 85.0921 5.36978 85.3248C5.70518 85.5575 6.08507 85.7663 6.50945 85.9511C6.94067 86.1291 7.37874 86.3139 7.82366 86.5055C8.27542 86.6904 8.71349 86.8923 9.13787 87.1113C9.56909 87.3304 9.94898 87.5905 10.2775 87.8916C10.6129 88.1928 10.8833 88.5487 11.0886 88.9594C11.294 89.3633 11.3967 89.8493 11.3967 90.4174C11.3967 91.0539 11.2632 91.6529 10.9962 92.2141C10.7293 92.7754 10.3494 93.2683 9.85658 93.6926C9.37059 94.1102 8.78536 94.4421 8.10087 94.6886C7.41639 94.9281 6.65319 95.0479 5.81127 95.0479C5.46903 95.0479 5.10968 95.024 4.73321 94.976C4.35674 94.935 3.97343 94.8734 3.58328 94.7912C3.19312 94.7091 2.80639 94.6064 2.42308 94.4832C2.03976 94.36 1.67014 94.2197 1.31421 94.0623L1.7249 92.0499L1.93025 91.9472C2.6558 92.3442 3.36424 92.6591 4.05557 92.8918C4.7469 93.1245 5.41427 93.2409 6.05769 93.2409ZM22.9884 90.9615H16.9615L15.6987 94.8426H13.4193L18.748 79.801H21.6331L26.9618 94.8426H24.2718L22.9884 90.9615ZM22.4237 89.2161L20.6372 83.6512L20.0725 81.5054H19.8672L19.3127 83.6512L17.5057 89.2161H22.4237ZM38.7692 79.801H41.1615L35.7609 94.8426H32.8963L27.506 79.801H30.2679L33.8512 90.8486L34.4261 92.9739H34.6212L35.1859 90.8486L38.7692 79.801ZM43.9439 94.8426V79.801H53.092L52.7532 81.6081H46.4902V86.1462H52.0345L51.706 87.9019H46.4902V93.0355H53.2358L52.897 94.8426H43.9439ZM62.5585 94.8426H60.0019V81.6081H55.125L55.4638 79.801H67.5894L67.2506 81.6081H62.5585V94.8426ZM72.8155 88.9902V94.8426H70.2692V79.801H74.8997C75.7211 79.801 76.4569 79.9071 77.1072 80.1193C77.7643 80.3247 78.3187 80.6087 78.7705 80.9715C79.2222 81.3274 79.5679 81.745 79.8075 82.2241C80.0539 82.7032 80.1771 83.2166 80.1771 83.7642C80.1771 84.2502 80.0881 84.7054 79.9101 85.1297C79.7322 85.5541 79.4995 85.9477 79.212 86.3105C78.9245 86.6664 78.5994 86.9915 78.2366 87.2859C77.8806 87.5733 77.5247 87.8232 77.1688 88.0354L81.5221 94.8426H78.5138L75.3001 88.9902H72.8155ZM72.8155 87.2345H75.9059C76.1592 87.0976 76.3919 86.9265 76.6041 86.7212C76.8163 86.5158 76.9977 86.2865 77.1482 86.0333C77.3057 85.7731 77.4255 85.4959 77.5076 85.2016C77.5897 84.9073 77.6308 84.6027 77.6308 84.2878C77.6308 83.9114 77.5658 83.5588 77.4357 83.2303C77.3057 82.9017 77.1106 82.6177 76.8505 82.3781C76.5972 82.1385 76.2755 81.9503 75.8854 81.8134C75.5021 81.6765 75.0537 81.6081 74.5404 81.6081H72.8155V87.2345ZM84.2943 94.8426V79.801H93.4424L93.1036 81.6081H86.8405V86.1462H92.3849L92.0563 87.9019H86.8405V93.0355H93.5861L93.2473 94.8426H84.2943ZM97.0257 94.8426V79.801H106.174L105.835 81.6081H99.572V86.1462H105.116L104.788 87.9019H99.572V93.0355H106.318L105.979 94.8426H97.0257ZM113.7 93.2409C114.11 93.2409 114.49 93.1895 114.839 93.0869C115.195 92.9773 115.503 92.8268 115.763 92.6351C116.024 92.4366 116.225 92.197 116.369 91.9164C116.52 91.6289 116.595 91.3072 116.595 90.9513C116.595 90.5269 116.492 90.1675 116.287 89.8732C116.089 89.5789 115.822 89.3222 115.486 89.1032C115.151 88.8773 114.771 88.6754 114.347 88.4974C113.922 88.3194 113.488 88.138 113.043 87.9532C112.605 87.7684 112.173 87.5665 111.749 87.3475C111.325 87.1216 110.945 86.8546 110.609 86.5466C110.274 86.2318 110.004 85.8587 109.798 85.4275C109.6 84.9963 109.5 84.4761 109.5 83.8669C109.5 83.2029 109.627 82.6074 109.88 82.0804C110.134 81.5533 110.489 81.105 110.948 80.7353C111.407 80.3657 111.954 80.0851 112.591 79.8934C113.227 79.6949 113.929 79.5957 114.696 79.5957C114.922 79.5957 115.182 79.6059 115.476 79.6265C115.77 79.647 116.085 79.6812 116.421 79.7292C116.756 79.7702 117.105 79.8284 117.468 79.9037C117.837 79.9721 118.207 80.0611 118.577 80.1706L118.176 82.1625L117.981 82.2652C117.618 82.1009 117.266 81.964 116.924 81.8545C116.581 81.745 116.256 81.656 115.948 81.5875C115.64 81.5191 115.353 81.4712 115.086 81.4438C114.826 81.4164 114.596 81.4027 114.398 81.4027C114.021 81.4027 113.679 81.4472 113.371 81.5362C113.063 81.6252 112.8 81.7552 112.581 81.9263C112.368 82.0975 112.201 82.3097 112.077 82.5629C111.961 82.8093 111.903 83.0934 111.903 83.4151C111.903 83.8463 112.006 84.2159 112.211 84.524C112.416 84.8251 112.683 85.0921 113.012 85.3248C113.347 85.5575 113.727 85.7663 114.151 85.9511C114.583 86.1291 115.021 86.3139 115.466 86.5055C115.917 86.6904 116.356 86.8923 116.78 87.1113C117.211 87.3304 117.591 87.5905 117.92 87.8916C118.255 88.1928 118.525 88.5487 118.731 88.9594C118.936 89.3633 119.039 89.8493 119.039 90.4174C119.039 91.0539 118.905 91.6529 118.638 92.2141C118.371 92.7754 117.991 93.2683 117.499 93.6926C117.013 94.1102 116.427 94.4421 115.743 94.6886C115.058 94.9281 114.295 95.0479 113.453 95.0479C113.111 95.0479 112.752 95.024 112.375 94.976C111.999 94.935 111.615 94.8734 111.225 94.7912C110.835 94.7091 110.448 94.6064 110.065 94.4832C109.682 94.36 109.312 94.2197 108.956 94.0623L109.367 92.0499L109.572 91.9472C110.298 92.3442 111.006 92.6591 111.698 92.8918C112.389 93.1245 113.056 93.2409 113.7 93.2409Z" fill="#33723E"/>
<mask id="mask0" mask-type="alpha" maskUnits="userSpaceOnUse" x="22" y="0" width="77" height="74">
<path d="M87.8658 36.9666C84.5275 45.2841 78.804 55.6317 69.3779 63.0944C61.7828 68.7128 63.9743 48.8541 65.4945 44.7428C65.6155 44.8666 65.7311 44.9928 65.8625 45.1115C69.3852 48.3046 75.0979 48.304 78.6217 45.1122C80.5602 43.3555 81.4241 40.9995 81.2263 38.7032C79.0432 38.6399 76.8358 38.2543 75.6549 37.8485C77.514 37.8487 79.2393 37.4078 80.7481 36.6312C83.892 35.0193 86.0177 31.9663 86.0183 28.4594C86.0177 24.5526 83.3822 21.205 79.6354 19.7911C80.2493 17.379 79.528 14.744 77.4538 12.8641C76.4 11.9093 75.1309 11.2706 73.7881 10.9453C74.3539 15.3621 71.4846 19.1604 69.0657 19.8965C69.9161 18.5509 70.4021 16.9916 70.4021 15.3298C70.4021 13.7752 69.9724 12.312 69.2215 11.0278C67.5166 8.1128 64.1372 6.12462 60.2423 6.12423C56.3475 6.12462 52.9686 8.11319 51.2638 11.0278C48.4499 10.2364 45.259 10.8459 43.0308 12.8641C42.1444 13.6677 41.5059 14.6088 41.1124 15.6117C44.9113 16.1689 48.0509 17.9579 49.087 19.897C47.7883 19.3662 46.3469 19.0707 44.8295 19.0707C43.4191 19.0707 42.0752 19.3283 40.8492 19.7911C37.1028 21.205 34.4665 24.5526 34.4663 28.4594C34.4665 31.9663 36.5929 35.0193 39.7368 36.6312C38.6297 39.5013 39.3312 42.8182 41.8629 45.1122C45.3867 48.304 51.0994 48.3046 54.6221 45.1115C54.7533 44.9928 54.8691 44.8666 54.9906 44.7428C56.5093 48.8519 58.8091 68.8389 51.0891 63.0797C41.7018 55.6399 35.9916 45.3417 32.6575 37.063C28.7098 27.2608 27.2815 18.4389 26.8828 15.4563C30.3184 12.937 43.4101 4.2328 60.2423 4.2328C70.3993 4.2328 79.1412 7.44746 84.6861 10.1442C89.0376 12.2606 92.1645 14.4012 93.6024 15.4569C93.2075 18.4258 91.7932 27.1809 87.8658 36.9666ZM97.6304 13C97.4675 12.8659 93.5675 9.67684 87.0266 6.47859C80.9824 3.5229 71.4285 0 60.2423 0C49.0557 0 39.5025 3.5229 33.458 6.47859C26.9169 9.67684 23.0169 12.8659 22.8543 13L22 13.704L22.0988 14.7464C22.1413 15.195 23.1966 25.876 28.2285 38.4132C31.1988 45.8147 34.9469 52.3152 39.3681 57.7348C44.9585 64.5869 51.6439 69.7213 59.2388 72.996L60.2423 73.4286L61.2458 72.996C68.8407 69.7213 75.5261 64.5869 81.1167 57.7348C85.5377 52.3152 89.2859 45.8147 92.2561 38.4132C97.288 25.876 98.3433 15.195 98.3858 14.7464L98.4846 13.704L97.6304 13Z" fill="white"/>
</mask>
<g mask="url(#mask0)">
<path fill-rule="evenodd" clip-rule="evenodd" d="M87.8658 36.9666C84.5275 45.2841 78.804 55.6317 69.3779 63.0944C61.7828 68.7128 63.9743 48.8541 65.4945 44.7428C65.6155 44.8666 65.7311 44.9928 65.8625 45.1115C69.3852 48.3046 75.0979 48.304 78.6217 45.1122C80.5602 43.3555 81.4241 40.9995 81.2263 38.7032C79.0432 38.6399 76.8358 38.2543 75.6549 37.8485C77.514 37.8487 79.2393 37.4078 80.7481 36.6312C83.892 35.0193 86.0177 31.9663 86.0183 28.4594C86.0177 24.5526 83.3822 21.205 79.6354 19.7911C80.2493 17.379 79.528 14.744 77.4538 12.8641C76.4 11.9093 75.1309 11.2706 73.7881 10.9453C74.3539 15.3621 71.4846 19.1604 69.0657 19.8965C69.9161 18.5509 70.4021 16.9916 70.4021 15.3298C70.4021 13.7752 69.9724 12.312 69.2215 11.0278C67.5166 8.1128 64.1372 6.12462 60.2423 6.12423C56.3475 6.12462 52.9686 8.11319 51.2638 11.0278C48.4499 10.2364 45.259 10.8459 43.0308 12.8641C42.1444 13.6677 41.5059 14.6088 41.1124 15.6117C44.9113 16.1689 48.0509 17.9579 49.087 19.897C47.7883 19.3662 46.3469 19.0707 44.8295 19.0707C43.4191 19.0707 42.0752 19.3283 40.8492 19.7911C37.1028 21.205 34.4665 24.5526 34.4663 28.4594C34.4665 31.9663 36.5929 35.0193 39.7368 36.6312C38.6297 39.5013 39.3312 42.8182 41.8629 45.1122C45.3867 48.304 51.0994 48.3046 54.6221 45.1115C54.7533 44.9928 54.8691 44.8666 54.9906 44.7428C56.5093 48.8519 58.8091 68.8389 51.0891 63.0797C41.7018 55.6399 35.9916 45.3417 32.6575 37.063C28.7098 27.2608 27.2815 18.4389 26.8828 15.4563C30.3184 12.937 43.4101 4.2328 60.2423 4.2328C70.3993 4.2328 79.1412 7.44746 84.6861 10.1442C89.0376 12.2606 92.1645 14.4012 93.6024 15.4569C93.2075 18.4258 91.7932 27.1809 87.8658 36.9666ZM97.6304 13C97.4675 12.8659 93.5675 9.67684 87.0266 6.47859C80.9824 3.5229 71.4285 0 60.2423 0C49.0557 0 39.5025 3.5229 33.458 6.47859C26.9169 9.67684 23.0169 12.8659 22.8543 13L22 13.704L22.0988 14.7464C22.1413 15.195 23.1966 25.876 28.2285 38.4132C31.1988 45.8147 34.9469 52.3152 39.3681 57.7348C44.9585 64.5869 51.6439 69.7213 59.2388 72.996L60.2423 73.4286L61.2458 72.996C68.8407 69.7213 75.5261 64.5869 81.1167 57.7348C85.5377 52.3152 89.2859 45.8147 92.2561 38.4132C97.288 25.876 98.3433 15.195 98.3858 14.7464L98.4846 13.704L97.6304 13Z" fill="url(#paint0_linear)"/>
</g>
<defs>
<linearGradient id="paint0_linear" x1="79.3087" y1="-0.467352" x2="35.1942" y2="64.1606" gradientUnits="userSpaceOnUse">
<stop stop-color="#86BC41"/>
<stop offset="1" stop-color="#1A6239"/>
</linearGradient>
</defs>
</svg>
