<svg width="55" height="59" viewBox="0 0 55 59" fill="none" xmlns="http://www.w3.org/2000/svg">
<path fill-rule="evenodd" clip-rule="evenodd" d="M27.7871 0C42.7439 0 54.8702 11.9228 54.8702 26.6317C54.8702 41.3407 42.7439 53.2635 27.7871 53.2635C12.8288 53.2635 0.703949 41.3407 0.703949 26.6317C0.703949 11.9228 12.8288 0 27.7871 0Z" fill="#E67E78"/>
<path fill-rule="evenodd" clip-rule="evenodd" d="M51.4339 29.2566C51.1 28.7407 50.5852 28.3821 49.9807 28.2483C49.6917 28.1835 49.4 28.1379 49.111 28.0814C50.0536 27.8345 50.7774 27.0138 50.8321 26.0055C50.8658 25.3959 50.6582 24.8097 50.243 24.3559C49.8292 23.9007 49.2597 23.6331 48.6411 23.5986C47.028 23.5131 45.5173 23.5986 44.1497 23.7752C43.6125 22.5862 42.876 21.4979 41.9938 20.3035C42.0961 20.1614 42.1943 20.0083 42.2869 19.8428C43.5451 17.5904 43.2225 9.96139 41.4607 9.01105C41.2139 8.87588 40.9011 8.80829 40.5322 8.80829C38.4534 8.80829 33.9746 11.1669 32.1623 13.491C29.0582 12.6662 25.8137 12.7048 22.8008 13.5462C21.0137 11.1945 16.5125 8.80829 14.3874 8.80829C14.0185 8.80829 13.7057 8.87588 13.4589 9.01105C11.6971 9.96139 11.3745 17.5904 12.6341 19.8428C12.7715 20.0897 12.9174 20.3076 13.0773 20.5007C12.0856 21.8773 11.3071 23.0773 10.7909 24.4331C9.59304 24.3062 8.30117 24.2524 6.93495 24.3269C6.31496 24.3586 5.74406 24.6276 5.33027 25.0828C4.91648 25.5379 4.70748 26.1228 4.74114 26.7324C4.79725 27.7421 5.51543 28.56 6.46364 28.8083C6.17469 28.8662 5.88293 28.9117 5.59538 28.9752C4.98942 29.109 4.47323 29.4676 4.14079 29.9835C3.80976 30.4993 3.70175 31.1117 3.83921 31.7062C4.07907 32.7559 5.01046 33.4897 6.10456 33.4897C6.27428 33.4897 6.44541 33.4704 6.61513 33.4331C7.26879 33.2897 7.92805 33.1697 8.59012 33.0635C7.89439 33.4152 7.20567 33.8041 6.54079 34.2441C5.48176 34.9504 5.20122 36.3724 5.9194 37.4166C6.35143 38.0455 7.07101 38.4221 7.84389 38.4221C8.30958 38.4221 8.75844 38.2869 9.14418 38.0304C10.0854 37.4041 11.1262 36.8938 12.1544 36.4786C15.0327 41.3573 20.6687 44.4552 27.6064 44.4552C34.8779 44.4552 40.7201 41.0538 43.454 35.7669C44.4723 36.1779 45.5005 36.6841 46.4305 37.3035C46.8176 37.5586 47.2665 37.6938 47.7293 37.6938C48.5036 37.6938 49.2232 37.3186 49.6566 36.6883C50.3734 35.6469 50.0943 34.2235 49.0338 33.5173C48.369 33.0759 47.6789 32.6883 46.9845 32.3366C47.6466 32.4414 48.3073 32.5628 48.9609 32.7062C49.1278 32.7435 49.3004 32.7614 49.4701 32.7614C50.5642 32.7614 51.497 32.029 51.7368 30.9793C51.8715 30.3835 51.7635 29.771 51.4339 29.2566ZM48.5611 25.0248C49.0409 25.0497 49.4084 25.4552 49.3831 25.9269C49.3565 26.4 48.9441 26.7697 48.4658 26.7366C42.747 26.4317 38.452 28.6069 38.4099 28.629C38.2808 28.6966 38.142 28.7269 38.0059 28.7269C37.6917 28.7269 37.3887 28.56 37.2344 28.2676C37.01 27.8497 37.1741 27.331 37.5991 27.1117C37.7913 27.0124 42.3683 24.6938 48.5611 25.0248ZM34.8555 14.5904C35.5694 13.3545 38.2963 12.0483 39.3567 12.0483C39.5461 12.0483 39.7032 12.0842 39.8378 12.16C40.5406 12.5517 40.7131 13.8952 40.7538 14.6607C40.779 15.1131 40.8141 16.6607 40.2656 17.6124C39.9122 18.2248 39.3819 18.9283 38.4239 18.9283C37.8741 18.9283 37.2386 18.6979 36.362 18.1807C35.0715 17.4152 33.7838 16.4455 34.8555 14.5904ZM33.9858 23.3917C34.7966 23.3917 35.4558 24.0386 35.4558 24.8373C35.4558 25.6359 34.7966 26.2841 33.9858 26.2841C33.1722 26.2841 32.5144 25.6359 32.5144 24.8373C32.5144 24.0386 33.1722 23.3917 33.9858 23.3917ZM6.19152 26.6538C6.16487 26.1821 6.53378 25.7779 7.0135 25.7517C13.2036 25.4179 17.7833 27.7407 17.9755 27.8386C18.4005 28.0593 18.5646 28.5766 18.3416 28.9945C18.1859 29.2883 17.8829 29.4538 17.5687 29.4538C17.4327 29.4538 17.2952 29.4235 17.1662 29.3573C17.1044 29.3241 12.7828 27.1559 7.10888 27.4635C6.62495 27.4924 6.21677 27.1269 6.19152 26.6538ZM6.29672 32.04C6.2322 32.0552 6.16768 32.0607 6.10456 32.0607C5.70619 32.0607 5.3457 31.7904 5.25453 31.3931C5.14932 30.931 5.44529 30.4731 5.91379 30.3683C12.4924 28.9131 17.5337 29.72 17.7469 29.7545C18.2196 29.8331 18.5408 30.2745 18.4594 30.7407C18.3809 31.2069 17.9292 31.5186 17.4565 31.4441C17.4074 31.4359 12.5205 30.6621 6.29672 32.04ZM17.7749 33.4731C17.7216 33.4814 12.2848 34.2179 8.33203 36.8469C8.18194 36.9462 8.01221 36.9945 7.84389 36.9945C7.56475 36.9945 7.28983 36.8621 7.1215 36.6179C6.85219 36.2248 6.95599 35.6924 7.35435 35.4276C11.6564 32.5669 17.3092 31.8055 17.5463 31.7752C18.0232 31.7117 18.4608 32.0428 18.524 32.5117C18.5885 32.9807 18.2518 33.411 17.7749 33.4731ZM16.6528 18.9283C15.6947 18.9283 15.1645 18.2248 14.811 17.6124C14.0269 16.2552 14.1504 12.7683 15.2389 12.16C15.3721 12.0842 15.5292 12.0483 15.7186 12.0483C16.7804 12.0483 19.5072 13.3545 20.2212 14.5904C21.2929 16.4455 20.0052 17.4152 18.7147 18.1807C17.8395 18.6979 17.2026 18.9283 16.6528 18.9283ZM19.5732 24.8373C19.5732 24.0386 20.231 23.3917 21.0432 23.3917C21.8553 23.3917 22.5132 24.0386 22.5132 24.8373C22.5132 25.6359 21.8553 26.2841 21.0432 26.2841C20.231 26.2841 19.5732 25.6359 19.5732 24.8373ZM36.3521 34.1241C36.1375 34.971 35.6873 35.7338 35.049 36.3269C34.3253 37.0014 33.3378 37.3517 32.3054 37.3517C31.6419 37.3517 30.9602 37.2069 30.3178 36.9104C29.3934 36.4841 28.6836 35.7959 28.2334 34.9586C27.7803 35.7959 27.0719 36.4841 26.1462 36.9104C25.5051 37.2069 24.8234 37.3517 24.16 37.3517C23.1276 37.3517 22.1401 37.0014 21.4149 36.3269C20.7781 35.7338 20.3264 34.971 20.1118 34.1241C19.9954 33.6648 20.2801 33.2 20.7472 33.0855C21.2171 32.971 21.687 33.251 21.8034 33.709C21.9353 34.2317 22.2243 34.7186 22.6142 35.0828C23.2861 35.709 24.4096 35.8207 25.407 35.36C25.9372 35.1145 27.1575 34.3476 27.0355 32.5186C27.0341 32.4828 27.0383 32.4483 27.0397 32.4124C25.9049 31.8414 25.3999 31.2041 25.5472 30.5145C25.7478 29.5807 27.1238 29.1545 28.3161 29.1545C29.1199 29.1545 29.8395 29.3393 30.343 29.6745C30.8915 30.04 30.9504 30.4952 30.9364 30.7338C30.8901 31.5186 29.9797 32.1669 29.4271 32.4897C29.4271 32.4993 29.4299 32.509 29.4299 32.5186C29.3064 34.3476 30.5282 35.1145 31.0584 35.36C32.0557 35.8207 33.1793 35.709 33.8511 35.0828C34.2411 34.7186 34.53 34.2317 34.6619 33.7104C34.7769 33.251 35.2496 32.971 35.7181 33.0855C36.1838 33.2 36.4686 33.6648 36.3521 34.1241ZM48.2189 34.7007C48.6187 34.9655 48.7225 35.4979 48.4531 35.8897C48.2848 36.1352 48.0099 36.2662 47.7293 36.2662C47.5624 36.2662 47.3927 36.2193 47.2426 36.12C43.2884 33.4897 37.853 32.7531 37.7983 32.7462C37.3214 32.6841 36.9876 32.2538 37.0493 31.7848C37.1138 31.3159 37.5514 30.989 38.0284 31.0483C38.2654 31.0786 43.9168 31.84 48.2189 34.7007ZM50.3187 30.6648C50.2275 31.0635 49.867 31.3338 49.4701 31.3338C49.407 31.3338 49.341 31.3269 49.2779 31.3131C43.0514 29.9352 38.1672 30.709 38.1181 30.7159C37.644 30.7904 37.1938 30.48 37.1152 30.0138C37.0353 29.5476 37.3551 29.1062 37.8278 29.0262C38.041 28.9917 43.0822 28.1862 49.6609 29.6414C50.1308 29.7448 50.4253 30.2041 50.3187 30.6648Z" fill="#FFFFFE"/>
<path fill-rule="evenodd" clip-rule="evenodd" d="M34.6717 50.7917C33.9395 50.8 33.3378 50.2235 33.3293 49.5021C33.3224 48.7835 33.9101 48.1917 34.6409 48.1835C37.5627 48.1462 40.0216 48.9186 42.0625 50.2924C44.2773 51.7835 45.9718 53.9683 47.2159 56.5821C47.5259 57.2345 47.2384 58.0097 46.5763 58.3159C45.9114 58.6207 45.1231 58.3393 44.8131 57.6869C43.7653 55.4841 42.3655 53.6621 40.5658 52.4497C38.9597 51.3697 37.0086 50.7628 34.6717 50.7917Z" fill="#E67E78"/>
</svg>
