<svg width="101" height="54" viewBox="0 0 101 54" fill="none" xmlns="http://www.w3.org/2000/svg">
<mask id="mask0" mask-type="alpha" maskUnits="userSpaceOnUse" x="0" y="0" width="58" height="32">
<path d="M0.0109863 0H57.8381V31.1255H0.0109863V0Z" fill="white"/>
</mask>
<g mask="url(#mask0)">
<path fill-rule="evenodd" clip-rule="evenodd" d="M19.819 7.54771L19.8407 19.5464L15.5234 25.5179L15.5769 4.52823H20.8904V1.45869H10.7481V4.52823H11.9171V14.9632L-0.000854492 31.1255H36.0704L57.8364 0L19.819 7.54771Z" fill="#BE3133"/>
</g>
<path fill-rule="evenodd" clip-rule="evenodd" d="M65.1497 10.3083L70.3437 20.2906H61.6217L55.8477 29.0734H71.5081L84.1053 6.08704L65.1497 10.3083Z" fill="#BE3133"/>
<path fill-rule="evenodd" clip-rule="evenodd" d="M87.8449 12.8546L91.2202 19.3414H85.5526L81.8004 25.0489H91.9768L100.163 10.1115L87.8449 12.8546Z" fill="#BE3133"/>
<path fill-rule="evenodd" clip-rule="evenodd" d="M51.6959 15.8032C52.7945 15.8273 53.893 15.8513 54.9917 15.8752C54.9917 14.6789 54.9917 13.4824 54.9917 12.2861C53.893 12.0856 52.7945 11.8848 51.6959 11.6844C51.6959 13.0574 51.6959 14.4303 51.6959 15.8032Z" fill="#1A1919"/>
<path fill-rule="evenodd" clip-rule="evenodd" d="M55.8477 15.8939C56.7921 15.918 57.7361 15.9418 58.6805 15.9657C58.6805 14.9919 58.6805 14.0179 58.6805 13.0439C57.7361 12.8434 56.7921 12.6426 55.8477 12.4423C55.8477 13.5927 55.8477 14.7433 55.8477 15.8939Z" fill="#1A1919"/>
<path fill-rule="evenodd" clip-rule="evenodd" d="M51.6959 21.0403C52.7945 20.8399 53.893 20.6392 54.9917 20.4384C54.9917 19.2423 54.9917 18.0458 54.9917 16.8494C53.893 16.8735 52.7945 16.8974 51.6959 16.9215C51.6959 18.2945 51.6959 19.6674 51.6959 21.0403Z" fill="#1A1919"/>
<path fill-rule="evenodd" clip-rule="evenodd" d="M58.6805 16.759C57.7361 16.783 56.7921 16.8067 55.8477 16.8308C55.8477 17.9813 55.8477 19.1319 55.8477 20.2825C56.7921 20.0821 57.7361 19.8815 58.6805 19.681C58.6805 18.7072 58.6805 17.7328 58.6805 16.759Z" fill="#1A1919"/>
<path fill-rule="evenodd" clip-rule="evenodd" d="M80.6094 16.9065C81.2839 16.9213 81.9585 16.9358 82.6332 16.9505C82.6332 16.2161 82.6332 15.4815 82.6332 14.7471C81.9585 14.6239 81.2839 14.5005 80.6094 14.3777C80.6094 15.2206 80.6094 16.0638 80.6094 16.9065Z" fill="#1A1919"/>
<path fill-rule="evenodd" clip-rule="evenodd" d="M83.1586 16.9621C83.7387 16.977 84.3182 16.9915 84.8983 17.0062C84.8983 16.4079 84.8983 15.8104 84.8983 15.2122C84.3182 15.0889 83.7387 14.9659 83.1586 14.8428C83.1586 15.5493 83.1586 16.2556 83.1586 16.9621Z" fill="#1A1919"/>
<path fill-rule="evenodd" clip-rule="evenodd" d="M80.6094 20.122C81.2839 19.9988 81.9585 19.8757 82.6332 19.7524C82.6332 19.018 82.6332 18.2834 82.6332 17.549C81.9585 17.5638 81.2839 17.5781 80.6094 17.5932C80.6094 18.4361 80.6094 19.2791 80.6094 20.122Z" fill="#1A1919"/>
<path fill-rule="evenodd" clip-rule="evenodd" d="M84.8983 17.4933C84.3182 17.508 83.7387 17.5225 83.1586 17.5374C83.1586 18.244 83.1586 18.9502 83.1586 19.6567C83.7387 19.5337 84.3182 19.4106 84.8983 19.2875C84.8983 18.6894 84.8983 18.0915 84.8983 17.4933Z" fill="#1A1919"/>
<path d="M1.4808 36.9261H4.84809C5.43705 36.9261 5.97479 37.02 6.46132 37.2078C6.94785 37.3956 7.36183 37.6773 7.70325 38.0528C8.04467 38.4199 8.30928 38.8851 8.49706 39.4484C8.68484 40.0032 8.77874 40.6519 8.77874 41.3945C8.77874 42.1371 8.68484 42.7901 8.49706 43.3535C8.30928 43.9083 8.04467 44.3735 7.70325 44.749C7.36183 45.1161 6.94785 45.3935 6.46132 45.5812C5.97479 45.769 5.43705 45.8629 4.84809 45.8629H1.4808V36.9261ZM4.84809 44.1345C5.42852 44.1345 5.88517 43.9723 6.21806 43.6479C6.55095 43.3236 6.71739 42.8029 6.71739 42.0859V40.7031C6.71739 39.9862 6.55095 39.4655 6.21806 39.1411C5.88517 38.8168 5.42852 38.6546 4.84809 38.6546H3.42692V44.1345H4.84809ZM13.6346 45.8629H11.6885V36.9261H15.9264C16.3361 36.9261 16.7074 36.9944 17.0403 37.131C17.3732 37.2676 17.6549 37.4639 17.8853 37.72C18.1243 37.9675 18.3079 38.2662 18.4359 38.6162C18.5639 38.9662 18.6279 39.3545 18.6279 39.7813C18.6279 40.3873 18.4914 40.9165 18.2182 41.3689C17.9536 41.8213 17.5482 42.1499 17.0019 42.3548L18.756 45.8629H16.5922L15.0302 42.5852H13.6346V45.8629ZM15.6832 40.9464C15.9734 40.9464 16.1996 40.8739 16.3617 40.7288C16.5325 40.5751 16.6178 40.3532 16.6178 40.063V39.4996C16.6178 39.2094 16.5325 38.9918 16.3617 38.8467C16.1996 38.693 15.9734 38.6162 15.6832 38.6162H13.6346V40.9464H15.6832ZM21.5961 45.8629V36.9261H27.6777V38.6546H23.5422V40.4855H27.0888V42.2011H23.5422V44.1345H27.6777V45.8629H21.5961ZM36.159 45.8629L35.5188 43.7376H32.5356L31.8955 45.8629H29.9237L32.8685 36.9261H35.2756L38.1819 45.8629H36.159ZM34.0464 38.693H33.9824L32.9965 42.0859H35.0451L34.0464 38.693ZM47.3821 39.999H47.3437L46.6907 41.3049L44.9494 44.4673L43.2466 41.3177L42.568 39.9093H42.5296V45.8629H40.6987V36.9261H42.76L44.9494 41.1129H44.975L47.1388 36.9261H49.2129V45.8629H47.3821V39.999ZM57.8211 42.2011H54.4154V45.8629H52.4693V36.9261H54.4154V40.4855H57.8211V36.9261H59.7672V45.8629H57.8211V42.2011ZM66.5995 46.0166C66.0106 46.0166 65.4728 45.9184 64.9863 45.7221C64.4998 45.5258 64.0858 45.2355 63.7444 44.8514C63.403 44.4588 63.1384 43.9765 62.9506 43.4047C62.7628 42.8242 62.6689 42.1542 62.6689 41.3945C62.6689 40.6349 62.7628 39.9691 62.9506 39.3972C63.1384 38.8168 63.403 38.3345 63.7444 37.9504C64.0858 37.5578 64.4998 37.2633 64.9863 37.067C65.4728 36.8707 66.0106 36.7725 66.5995 36.7725C67.1885 36.7725 67.7262 36.8707 68.2128 37.067C68.6993 37.2633 69.1133 37.5578 69.4547 37.9504C69.7961 38.3345 70.0607 38.8168 70.2485 39.3972C70.4363 39.9691 70.5302 40.6349 70.5302 41.3945C70.5302 42.1542 70.4363 42.8242 70.2485 43.4047C70.0607 43.9765 69.7961 44.4588 69.4547 44.8514C69.1133 45.2355 68.6993 45.5258 68.2128 45.7221C67.7262 45.9184 67.1885 46.0166 66.5995 46.0166ZM66.5995 44.2881C67.1885 44.2881 67.6452 44.096 67.9695 43.7119C68.3024 43.3278 68.4688 42.7773 68.4688 42.0603V40.7288C68.4688 40.0118 68.3024 39.4612 67.9695 39.0771C67.6452 38.693 67.1885 38.501 66.5995 38.501C66.0106 38.501 65.5497 38.693 65.2168 39.0771C64.8924 39.4612 64.7303 40.0118 64.7303 40.7288V42.0603C64.7303 42.7773 64.8924 43.3278 65.2168 43.7119C65.5497 44.096 66.0106 44.2881 66.5995 44.2881ZM75.2785 36.9261V42.406C75.2785 43.0376 75.4023 43.5114 75.6498 43.8272C75.8974 44.1345 76.3114 44.2881 76.8918 44.2881C77.4722 44.2881 77.8862 44.1345 78.1337 43.8272C78.3812 43.5114 78.505 43.0376 78.505 42.406V36.9261H80.3999V42.2011C80.3999 42.8584 80.3359 43.4303 80.2079 43.9168C80.0884 44.3948 79.8878 44.7917 79.6061 45.1075C79.3244 45.4148 78.9617 45.6453 78.5178 45.7989C78.074 45.944 77.5319 46.0166 76.8918 46.0166C76.2516 46.0166 75.7096 45.944 75.2657 45.7989C74.8219 45.6453 74.4591 45.4148 74.1775 45.1075C73.8958 44.7917 73.6909 44.3948 73.5629 43.9168C73.4434 43.4303 73.3836 42.8584 73.3836 42.2011V36.9261H75.2785ZM86.4986 46.0166C85.7133 46.0166 85.0476 45.8843 84.5013 45.6197C83.955 45.3465 83.4898 44.9966 83.1057 44.5698L84.3861 43.2766C84.9921 43.9595 85.739 44.3009 86.6267 44.3009C87.1046 44.3009 87.4589 44.2027 87.6893 44.0064C87.9198 43.8101 88.035 43.5498 88.035 43.2254C88.035 42.9779 87.9667 42.773 87.8302 42.6109C87.6936 42.4401 87.4162 42.3249 86.998 42.2652L86.1145 42.1499C85.1671 42.0304 84.4714 41.7445 84.0276 41.2921C83.5923 40.8397 83.3746 40.238 83.3746 39.4868C83.3746 39.0857 83.4514 38.7186 83.6051 38.3857C83.7587 38.0528 83.9764 37.7669 84.258 37.5279C84.5482 37.2889 84.8982 37.1054 85.3079 36.9774C85.7262 36.8408 86.1999 36.7725 86.7291 36.7725C87.4034 36.7725 87.9966 36.8792 88.5088 37.0926C89.0209 37.306 89.4605 37.6175 89.8275 38.0272L88.5344 39.3332C88.321 39.0857 88.0606 38.8851 87.7534 38.7314C87.4546 38.5692 87.0748 38.4882 86.6139 38.4882C86.1785 38.4882 85.8542 38.565 85.6408 38.7186C85.4274 38.8723 85.3207 39.0857 85.3207 39.3588C85.3207 39.6661 85.4018 39.888 85.564 40.0246C85.7347 40.1611 86.0078 40.2593 86.3834 40.319L87.2668 40.4599C88.1887 40.605 88.8715 40.8909 89.3154 41.3177C89.7592 41.736 89.9811 42.3334 89.9811 43.1102C89.9811 43.537 89.9043 43.9296 89.7507 44.2881C89.597 44.6466 89.3708 44.9539 89.0721 45.2099C88.7819 45.466 88.4191 45.6666 87.9838 45.8117C87.5485 45.9483 87.0534 46.0166 86.4986 46.0166ZM92.875 45.8629V36.9261H98.9566V38.6546H94.8211V40.4855H98.3677V42.2011H94.8211V44.1345H98.9566V45.8629H92.875Z" fill="#1A1919"/>
</svg>
